<svg xmlns="http://www.w3.org/2000/svg" viewBox="0 0 1920 1080" width="1920" height="1080">
  <defs>
    <radialGradient id="bg" cx="50%" cy="50%" r="70%">
      <stop offset="0%" stop-color="#0d001f"/>
      <stop offset="100%" stop-color="#000008"/>
    </radialGradient>
    <radialGradient id="neb1" cx="40%" cy="45%" r="45%">
      <stop offset="0%" stop-color="#3d006e" stop-opacity="0.6"/>
      <stop offset="50%" stop-color="#1a0040" stop-opacity="0.3"/>
      <stop offset="100%" stop-color="#000000" stop-opacity="0"/>
    </radialGradient>
    <radialGradient id="neb2" cx="65%" cy="35%" r="40%">
      <stop offset="0%" stop-color="#001a5e" stop-opacity="0.55"/>
      <stop offset="60%" stop-color="#000a30" stop-opacity="0.2"/>
      <stop offset="100%" stop-color="#000000" stop-opacity="0"/>
    </radialGradient>
    <radialGradient id="neb3" cx="30%" cy="65%" r="35%">
      <stop offset="0%" stop-color="#1a004a" stop-opacity="0.5"/>
      <stop offset="100%" stop-color="#000000" stop-opacity="0"/>
    </radialGradient>
    <radialGradient id="neb4" cx="70%" cy="70%" r="30%">
      <stop offset="0%" stop-color="#002040" stop-opacity="0.45"/>
      <stop offset="100%" stop-color="#000000" stop-opacity="0"/>
    </radialGradient>
    <radialGradient id="cluster" cx="52%" cy="48%" r="12%">
      <stop offset="0%" stop-color="#ffffff" stop-opacity="0.9"/>
      <stop offset="20%" stop-color="#c0a0ff" stop-opacity="0.6"/>
      <stop offset="50%" stop-color="#6030c0" stop-opacity="0.3"/>
      <stop offset="100%" stop-color="#000000" stop-opacity="0"/>
    </radialGradient>
    <radialGradient id="magenta" cx="55%" cy="30%" r="25%">
      <stop offset="0%" stop-color="#8000a0" stop-opacity="0.35"/>
      <stop offset="100%" stop-color="#000000" stop-opacity="0"/>
    </radialGradient>
    <radialGradient id="cyan" cx="20%" cy="75%" r="20%">
      <stop offset="0%" stop-color="#004060" stop-opacity="0.4"/>
      <stop offset="100%" stop-color="#000000" stop-opacity="0"/>
    </radialGradient>
    <filter id="blur1"><feGaussianBlur stdDeviation="18"/></filter>
    <filter id="blur2"><feGaussianBlur stdDeviation="35"/></filter>
    <filter id="glow"><feGaussianBlur stdDeviation="4" result="b"/><feMerge><feMergeNode in="b"/><feMergeNode in="SourceGraphic"/></feMerge></filter>
  </defs>
  <rect width="1920" height="1080" fill="url(#bg)"/>
  <rect width="1920" height="1080" fill="url(#neb1)" filter="url(#blur2)"/>
  <rect width="1920" height="1080" fill="url(#neb2)" filter="url(#blur2)"/>
  <rect width="1920" height="1080" fill="url(#neb3)" filter="url(#blur2)"/>
  <rect width="1920" height="1080" fill="url(#neb4)" filter="url(#blur2)"/>
  <rect width="1920" height="1080" fill="url(#magenta)" filter="url(#blur2)"/>
  <rect width="1920" height="1080" fill="url(#cyan)" filter="url(#blur2)"/>
  <circle cx="1227.7" cy="27.0" r="0.71" fill="white" opacity="0.46"/><circle cx="1414.0" cy="730.8" r="1.64" fill="white" opacity="0.36"/><circle cx="810.1" cy="32.2" r="0.63" fill="white" opacity="0.65"/><circle cx="50.9" cy="214.7" r="1.27" fill="white" opacity="0.68"/><circle cx="423.2" cy="636.4" r="1.51" fill="white" opacity="0.30"/><circle cx="1547.2" cy="754.0" r="0.81" fill="white" opacity="0.41"/><circle cx="1837.8" cy="363.5" r="0.44" fill="white" opacity="0.37"/><circle cx="1627.2" cy="652.0" r="1.51" fill="white" opacity="0.81"/><circle cx="1029.6" cy="1051.0" r="0.87" fill="white" opacity="0.69"/><circle cx="1592.5" cy="668.0" r="1.59" fill="white" opacity="0.70"/><circle cx="1352.8" cy="49.5" r="0.64" fill="white" opacity="0.50"/><circle cx="153.2" cy="251.4" r="0.45" fill="white" opacity="0.49"/><circle cx="1220.5" cy="394.0" r="0.86" fill="white" opacity="0.45"/><circle cx="512.6" cy="1011.6" r="1.27" fill="white" opacity="0.73"/><circle cx="328.6" cy="787.5" r="0.55" fill="white" opacity="0.57"/><circle cx="1899.9" cy="691.2" r="1.14" fill="white" opacity="0.78"/><circle cx="1618.3" cy="838.1" r="0.64" fill="white" opacity="0.32"/><circle cx="605.7" cy="289.2" r="0.62" fill="white" opacity="0.96"/><circle cx="1682.6" cy="339.9" r="1.28" fill="white" opacity="0.58"/><circle cx="1755.9" cy="495.6" r="0.70" fill="white" opacity="0.47"/><circle cx="1077.8" cy="283.8" r="1.18" fill="white" opacity="0.93"/><circle cx="766.8" cy="236.9" r="1.80" fill="white" opacity="0.66"/><circle cx="174.5" cy="50.9" r="0.46" fill="white" opacity="0.74"/><circle cx="1520.8" cy="455.9" r="0.40" fill="white" opacity="0.57"/><circle cx="1912.6" cy="571.4" r="1.76" fill="white" opacity="0.90"/><circle cx="22.0" cy="778.4" r="1.32" fill="white" opacity="0.68"/><circle cx="512.3" cy="692.2" r="0.47" fill="white" opacity="0.60"/><circle cx="871.1" cy="1030.1" r="1.61" fill="white" opacity="0.48"/><circle cx="961.1" cy="192.9" r="1.67" fill="white" opacity="0.91"/><circle cx="573.0" cy="690.1" r="1.21" fill="white" opacity="0.41"/><circle cx="1464.0" cy="582.5" r="1.47" fill="white" opacity="0.67"/><circle cx="1.1" cy="350.1" r="0.33" fill="white" opacity="0.95"/><circle cx="1687.1" cy="898.2" r="0.76" fill="white" opacity="0.34"/><circle cx="1685.8" cy="1022.7" r="0.43" fill="white" opacity="0.64"/><circle cx="132.9" cy="821.5" r="1.45" fill="white" opacity="0.39"/><circle cx="912.5" cy="593.8" r="0.70" fill="white" opacity="0.91"/><circle cx="812.4" cy="228.7" r="1.11" fill="white" opacity="0.81"/><circle cx="386.2" cy="336.7" r="1.79" fill="white" opacity="0.75"/><circle cx="841.2" cy="559.0" r="0.48" fill="white" opacity="0.46"/><circle cx="649.1" cy="635.4" r="0.65" fill="white" opacity="0.45"/><circle cx="136.3" cy="681.6" r="0.64" fill="white" opacity="0.93"/><circle cx="1650.5" cy="76.5" r="0.66" fill="white" opacity="0.77"/><circle cx="411.3" cy="142.9" r="1.70" fill="white" opacity="0.70"/><circle cx="907.5" cy="847.4" r="1.51" fill="white" opacity="0.43"/><circle cx="186.1" cy="465.5" r="0.94" fill="white" opacity="0.63"/><circle cx="1399.8" cy="727.2" r="1.78" fill="white" opacity="0.37"/><circle cx="773.0" cy="366.4" r="1.59" fill="white" opacity="0.47"/><circle cx="365.2" cy="484.5" r="0.93" fill="white" opacity="0.49"/><circle cx="479.6" cy="997.1" r="0.96" fill="white" opacity="0.90"/><circle cx="1056.6" cy="54.6" r="1.80" fill="white" opacity="0.89"/><circle cx="1860.5" cy="1000.5" r="1.57" fill="white" opacity="0.42"/><circle cx="932.4" cy="230.8" r="0.90" fill="white" opacity="0.34"/><circle cx="727.6" cy="1064.1" r="0.70" fill="white" opacity="0.85"/><circle cx="873.6" cy="456.8" r="1.74" fill="white" opacity="1.00"/><circle cx="1067.1" cy="775.9" r="0.53" fill="white" opacity="0.51"/><circle cx="1859.9" cy="625.5" r="1.11" fill="white" opacity="0.82"/><circle cx="109.8" cy="630.9" r="1.05" fill="white" opacity="0.90"/><circle cx="302.3" cy="1037.6" r="0.42" fill="white" opacity="0.43"/><circle cx="1142.5" cy="729.2" r="0.65" fill="white" opacity="0.38"/><circle cx="1709.4" cy="265.9" r="1.19" fill="white" opacity="0.73"/><circle cx="804.9" cy="630.4" r="1.08" fill="white" opacity="0.95"/><circle cx="392.2" cy="773.5" r="0.66" fill="white" opacity="0.58"/><circle cx="1289.6" cy="324.0" r="0.77" fill="white" opacity="0.83"/><circle cx="139.3" cy="494.9" r="1.80" fill="white" opacity="1.00"/><circle cx="140.7" cy="230.2" r="0.70" fill="white" opacity="0.95"/><circle cx="1691.3" cy="949.6" r="0.85" fill="white" opacity="0.41"/><circle cx="1600.8" cy="759.8" r="1.22" fill="white" opacity="0.99"/><circle cx="1255.6" cy="8.4" r="1.53" fill="white" opacity="0.51"/><circle cx="1273.7" cy="1014.0" r="0.50" fill="white" opacity="0.38"/><circle cx="205.5" cy="597.5" r="0.71" fill="white" opacity="0.72"/><circle cx="1377.8" cy="219.9" r="1.25" fill="white" opacity="0.48"/><circle cx="938.0" cy="977.8" r="1.57" fill="white" opacity="0.36"/><circle cx="813.3" cy="298.8" r="0.31" fill="white" opacity="0.84"/><circle cx="1223.3" cy="282.9" r="1.41" fill="white" opacity="0.69"/><circle cx="821.2" cy="10.4" r="0.41" fill="white" opacity="0.92"/><circle cx="1735.5" cy="589.2" r="1.55" fill="white" opacity="0.71"/><circle cx="284.3" cy="137.6" r="0.76" fill="white" opacity="0.93"/><circle cx="1528.6" cy="929.6" r="1.65" fill="white" opacity="0.45"/><circle cx="479.1" cy="111.0" r="1.47" fill="white" opacity="0.92"/><circle cx="780.2" cy="670.3" r="0.53" fill="white" opacity="0.95"/><circle cx="1660.0" cy="1054.3" r="1.52" fill="white" opacity="0.92"/><circle cx="47.6" cy="795.5" r="0.80" fill="white" opacity="0.95"/><circle cx="1540.3" cy="933.2" r="1.52" fill="white" opacity="0.49"/><circle cx="1511.8" cy="116.7" r="1.61" fill="white" opacity="0.90"/><circle cx="427.1" cy="881.9" r="0.99" fill="white" opacity="0.51"/><circle cx="1527.1" cy="245.8" r="0.34" fill="white" opacity="0.44"/><circle cx="630.3" cy="933.5" r="1.75" fill="white" opacity="0.50"/><circle cx="1231.6" cy="431.7" r="1.77" fill="white" opacity="0.68"/><circle cx="1803.3" cy="124.6" r="1.76" fill="white" opacity="0.42"/><circle cx="1848.1" cy="286.7" r="0.46" fill="white" opacity="0.60"/><circle cx="1398.8" cy="338.8" r="1.21" fill="white" opacity="0.66"/><circle cx="739.6" cy="622.7" r="0.68" fill="white" opacity="0.80"/><circle cx="3.2" cy="999.6" r="1.11" fill="white" opacity="0.80"/><circle cx="1424.5" cy="724.3" r="0.85" fill="white" opacity="0.35"/><circle cx="1275.3" cy="356.6" r="0.77" fill="white" opacity="0.89"/><circle cx="1381.9" cy="324.3" r="0.76" fill="white" opacity="0.59"/><circle cx="772.6" cy="319.3" r="0.49" fill="white" opacity="0.59"/><circle cx="1805.5" cy="731.5" r="1.65" fill="white" opacity="0.73"/><circle cx="577.8" cy="591.8" r="0.30" fill="white" opacity="0.50"/><circle cx="825.4" cy="626.4" r="1.28" fill="white" opacity="0.63"/><circle cx="848.9" cy="230.8" r="1.01" fill="white" opacity="0.93"/><circle cx="1528.4" cy="183.3" r="0.43" fill="white" opacity="0.66"/><circle cx="1215.2" cy="362.0" r="1.53" fill="white" opacity="0.83"/><circle cx="1291.8" cy="242.6" r="0.60" fill="white" opacity="0.32"/><circle cx="470.1" cy="513.1" r="1.57" fill="white" opacity="0.35"/><circle cx="795.7" cy="680.1" r="0.59" fill="white" opacity="0.79"/><circle cx="949.2" cy="263.5" r="1.28" fill="white" opacity="0.30"/><circle cx="1441.9" cy="831.6" r="0.46" fill="white" opacity="0.60"/><circle cx="337.7" cy="1034.6" r="1.08" fill="white" opacity="0.34"/><circle cx="478.5" cy="916.2" r="0.98" fill="white" opacity="0.86"/><circle cx="1281.7" cy="1066.9" r="1.19" fill="white" opacity="0.97"/><circle cx="1711.5" cy="661.7" r="1.38" fill="white" opacity="0.65"/><circle cx="1594.7" cy="591.7" r="1.65" fill="white" opacity="0.82"/><circle cx="911.4" cy="279.9" r="0.67" fill="white" opacity="0.75"/><circle cx="1470.4" cy="563.0" r="1.24" fill="white" opacity="0.49"/><circle cx="148.8" cy="308.6" r="0.71" fill="white" opacity="0.52"/><circle cx="1037.1" cy="149.4" r="0.65" fill="white" opacity="0.79"/><circle cx="1356.3" cy="69.4" r="0.91" fill="white" opacity="0.68"/><circle cx="798.3" cy="223.4" r="0.93" fill="white" opacity="0.93"/><circle cx="1121.4" cy="751.2" r="1.59" fill="white" opacity="0.84"/><circle cx="730.3" cy="6.4" r="0.83" fill="white" opacity="0.83"/><circle cx="1638.6" cy="1029.7" r="0.93" fill="white" opacity="0.82"/><circle cx="1048.6" cy="651.5" r="0.63" fill="white" opacity="0.45"/><circle cx="836.8" cy="31.3" r="0.80" fill="white" opacity="0.78"/><circle cx="776.3" cy="178.2" r="1.00" fill="white" opacity="0.39"/><circle cx="1194.7" cy="29.1" r="0.89" fill="white" opacity="0.70"/><circle cx="52.0" cy="694.2" r="0.50" fill="white" opacity="0.62"/><circle cx="96.5" cy="409.4" r="0.62" fill="white" opacity="0.53"/><circle cx="1461.6" cy="409.5" r="1.43" fill="white" opacity="0.88"/><circle cx="484.4" cy="88.5" r="0.33" fill="white" opacity="0.68"/><circle cx="1919.8" cy="378.0" r="1.28" fill="white" opacity="0.85"/><circle cx="1251.4" cy="814.6" r="1.72" fill="white" opacity="0.44"/><circle cx="39.1" cy="164.6" r="0.49" fill="white" opacity="0.77"/><circle cx="1082.8" cy="235.4" r="1.35" fill="white" opacity="0.84"/><circle cx="322.2" cy="655.8" r="1.42" fill="white" opacity="0.38"/><circle cx="1573.1" cy="1041.9" r="0.46" fill="white" opacity="0.32"/><circle cx="599.0" cy="731.5" r="1.74" fill="white" opacity="0.58"/><circle cx="1372.8" cy="82.1" r="1.34" fill="white" opacity="0.74"/><circle cx="195.7" cy="834.3" r="1.58" fill="white" opacity="0.72"/><circle cx="232.4" cy="1062.6" r="1.47" fill="white" opacity="0.54"/><circle cx="822.5" cy="400.2" r="1.06" fill="white" opacity="0.54"/><circle cx="1631.2" cy="888.1" r="0.46" fill="white" opacity="0.97"/><circle cx="1220.3" cy="895.0" r="1.36" fill="white" opacity="0.60"/><circle cx="1408.9" cy="1042.7" r="0.71" fill="white" opacity="0.87"/><circle cx="1033.3" cy="522.2" r="0.95" fill="white" opacity="0.81"/><circle cx="515.3" cy="919.9" r="1.55" fill="white" opacity="0.36"/><circle cx="1692.7" cy="263.4" r="1.00" fill="white" opacity="0.73"/><circle cx="727.7" cy="31.0" r="1.58" fill="white" opacity="0.43"/><circle cx="407.3" cy="861.7" r="0.81" fill="white" opacity="0.92"/><circle cx="1346.3" cy="298.4" r="0.32" fill="white" opacity="0.96"/><circle cx="164.4" cy="777.7" r="1.03" fill="white" opacity="0.83"/><circle cx="1326.0" cy="697.6" r="1.04" fill="white" opacity="0.86"/><circle cx="178.7" cy="239.3" r="1.34" fill="white" opacity="0.51"/><circle cx="1116.6" cy="511.1" r="1.10" fill="white" opacity="0.60"/><circle cx="1432.2" cy="357.3" r="1.35" fill="white" opacity="0.49"/><circle cx="482.7" cy="130.3" r="0.59" fill="white" opacity="0.38"/><circle cx="1028.9" cy="823.2" r="0.58" fill="white" opacity="0.45"/><circle cx="929.7" cy="782.6" r="1.76" fill="white" opacity="0.67"/><circle cx="543.4" cy="108.6" r="0.59" fill="white" opacity="0.46"/><circle cx="344.5" cy="15.3" r="1.10" fill="white" opacity="0.49"/><circle cx="1870.6" cy="597.6" r="1.35" fill="white" opacity="0.39"/><circle cx="1667.4" cy="530.1" r="1.61" fill="white" opacity="0.70"/><circle cx="901.2" cy="475.7" r="0.58" fill="white" opacity="0.34"/><circle cx="1806.8" cy="515.9" r="1.53" fill="white" opacity="0.58"/><circle cx="142.2" cy="679.8" r="0.38" fill="white" opacity="0.40"/><circle cx="1080.7" cy="328.1" r="1.79" fill="white" opacity="0.38"/><circle cx="1467.7" cy="654.8" r="1.49" fill="white" opacity="0.46"/><circle cx="1003.3" cy="486.6" r="0.96" fill="white" opacity="0.90"/><circle cx="1900.9" cy="329.8" r="1.23" fill="white" opacity="0.73"/><circle cx="1421.0" cy="1023.4" r="0.61" fill="white" opacity="0.45"/><circle cx="1268.0" cy="169.6" r="0.56" fill="white" opacity="0.35"/><circle cx="5.1" cy="486.5" r="1.19" fill="white" opacity="0.50"/><circle cx="444.4" cy="763.5" r="1.35" fill="white" opacity="0.62"/><circle cx="1319.8" cy="997.8" r="1.48" fill="white" opacity="0.74"/><circle cx="1269.5" cy="1008.4" r="0.94" fill="white" opacity="0.68"/><circle cx="1243.5" cy="981.1" r="1.54" fill="white" opacity="0.35"/><circle cx="318.6" cy="332.2" r="1.42" fill="white" opacity="0.70"/><circle cx="554.1" cy="134.3" r="1.33" fill="white" opacity="0.79"/><circle cx="1809.9" cy="540.5" r="1.04" fill="white" opacity="0.36"/><circle cx="76.5" cy="466.6" r="0.78" fill="white" opacity="0.48"/><circle cx="175.3" cy="1038.9" r="1.55" fill="white" opacity="0.70"/><circle cx="1825.5" cy="1079.5" r="1.31" fill="white" opacity="0.49"/><circle cx="77.2" cy="816.8" r="1.01" fill="white" opacity="0.76"/><circle cx="1758.9" cy="196.0" r="1.18" fill="white" opacity="0.74"/><circle cx="944.1" cy="98.5" r="0.82" fill="white" opacity="0.53"/><circle cx="1286.7" cy="926.4" r="0.79" fill="white" opacity="0.79"/><circle cx="553.4" cy="1020.8" r="1.52" fill="white" opacity="0.69"/><circle cx="873.3" cy="339.7" r="0.78" fill="white" opacity="0.98"/><circle cx="776.0" cy="555.8" r="1.78" fill="white" opacity="0.76"/><circle cx="1041.8" cy="446.3" r="0.58" fill="white" opacity="0.55"/><circle cx="1452.4" cy="675.4" r="1.44" fill="white" opacity="0.44"/><circle cx="1054.5" cy="1001.9" r="0.96" fill="white" opacity="0.79"/><circle cx="233.1" cy="1051.0" r="1.21" fill="white" opacity="0.47"/><circle cx="304.1" cy="594.9" r="1.13" fill="white" opacity="0.37"/><circle cx="1905.1" cy="986.0" r="0.99" fill="white" opacity="0.38"/><circle cx="1597.7" cy="538.2" r="1.37" fill="white" opacity="0.66"/><circle cx="525.0" cy="901.5" r="1.77" fill="white" opacity="0.47"/><circle cx="1058.4" cy="414.3" r="1.68" fill="white" opacity="0.66"/><circle cx="1688.3" cy="933.1" r="0.71" fill="white" opacity="0.85"/><circle cx="796.7" cy="1009.0" r="1.06" fill="white" opacity="0.87"/><circle cx="543.1" cy="322.4" r="1.18" fill="white" opacity="1.00"/><circle cx="940.1" cy="160.5" r="1.11" fill="white" opacity="0.54"/><circle cx="1059.7" cy="586.9" r="0.98" fill="white" opacity="0.53"/><circle cx="362.2" cy="753.3" r="1.16" fill="white" opacity="0.46"/><circle cx="1489.0" cy="47.1" r="1.42" fill="white" opacity="0.79"/><circle cx="1557.9" cy="417.0" r="1.30" fill="white" opacity="0.87"/><circle cx="1883.2" cy="535.0" r="0.36" fill="white" opacity="0.65"/><circle cx="1133.1" cy="939.3" r="1.61" fill="white" opacity="0.61"/><circle cx="1009.8" cy="493.5" r="1.38" fill="white" opacity="0.59"/><circle cx="1257.2" cy="166.7" r="1.00" fill="white" opacity="0.98"/><circle cx="650.0" cy="748.1" r="1.27" fill="white" opacity="0.90"/><circle cx="1636.5" cy="928.1" r="0.87" fill="white" opacity="0.52"/><circle cx="1379.9" cy="820.2" r="1.61" fill="white" opacity="0.33"/><circle cx="131.4" cy="681.7" r="1.68" fill="white" opacity="1.00"/><circle cx="1433.8" cy="468.7" r="0.45" fill="white" opacity="0.74"/><circle cx="1675.4" cy="479.2" r="1.34" fill="white" opacity="0.93"/><circle cx="88.3" cy="859.8" r="0.74" fill="white" opacity="0.56"/><circle cx="279.5" cy="573.7" r="1.15" fill="white" opacity="0.85"/><circle cx="326.4" cy="85.3" r="1.61" fill="white" opacity="0.73"/><circle cx="462.4" cy="985.9" r="0.51" fill="white" opacity="0.62"/><circle cx="487.6" cy="275.8" r="0.31" fill="white" opacity="0.86"/><circle cx="1730.3" cy="731.8" r="0.54" fill="white" opacity="0.61"/><circle cx="663.5" cy="634.6" r="1.26" fill="white" opacity="0.60"/><circle cx="480.2" cy="912.9" r="0.60" fill="white" opacity="0.57"/><circle cx="927.8" cy="256.2" r="1.16" fill="white" opacity="0.70"/><circle cx="1906.0" cy="318.8" r="1.77" fill="white" opacity="0.76"/><circle cx="527.0" cy="611.2" r="1.33" fill="white" opacity="0.82"/><circle cx="94.2" cy="654.9" r="1.05" fill="white" opacity="0.93"/><circle cx="549.5" cy="862.8" r="1.21" fill="white" opacity="0.55"/><circle cx="1222.3" cy="670.6" r="1.32" fill="white" opacity="0.80"/><circle cx="1265.6" cy="905.4" r="1.24" fill="white" opacity="0.93"/><circle cx="1241.0" cy="333.6" r="0.96" fill="white" opacity="0.71"/><circle cx="1406.1" cy="97.3" r="0.74" fill="white" opacity="0.82"/><circle cx="337.2" cy="142.7" r="1.11" fill="white" opacity="0.98"/><circle cx="1019.2" cy="986.6" r="1.55" fill="white" opacity="0.48"/><circle cx="1583.4" cy="520.4" r="1.51" fill="white" opacity="0.82"/><circle cx="650.3" cy="124.4" r="1.74" fill="white" opacity="0.40"/><circle cx="1855.7" cy="929.0" r="1.39" fill="white" opacity="0.99"/><circle cx="1857.2" cy="869.0" r="0.85" fill="white" opacity="0.85"/><circle cx="26.7" cy="579.5" r="0.98" fill="white" opacity="0.77"/><circle cx="1290.9" cy="631.3" r="1.53" fill="white" opacity="0.96"/><circle cx="208.0" cy="252.5" r="0.34" fill="white" opacity="0.92"/><circle cx="1077.9" cy="988.5" r="0.63" fill="white" opacity="0.34"/><circle cx="1581.8" cy="982.1" r="0.75" fill="white" opacity="0.59"/><circle cx="268.4" cy="1022.0" r="0.76" fill="white" opacity="0.64"/><circle cx="186.6" cy="958.2" r="0.50" fill="white" opacity="0.62"/><circle cx="1287.3" cy="802.6" r="1.72" fill="white" opacity="0.59"/><circle cx="1425.2" cy="166.9" r="0.92" fill="white" opacity="0.37"/><circle cx="939.5" cy="440.8" r="1.73" fill="white" opacity="0.32"/><circle cx="711.4" cy="478.9" r="1.73" fill="white" opacity="0.90"/><circle cx="190.8" cy="740.5" r="1.12" fill="white" opacity="0.98"/><circle cx="688.7" cy="430.0" r="0.58" fill="white" opacity="0.39"/><circle cx="1628.2" cy="491.1" r="1.29" fill="white" opacity="0.75"/><circle cx="1146.5" cy="23.1" r="1.48" fill="white" opacity="0.47"/><circle cx="241.8" cy="609.7" r="0.40" fill="white" opacity="0.84"/><circle cx="397.7" cy="233.2" r="1.60" fill="white" opacity="0.53"/><circle cx="283.3" cy="972.6" r="0.30" fill="white" opacity="0.90"/><circle cx="277.8" cy="140.4" r="0.68" fill="white" opacity="0.42"/><circle cx="1269.2" cy="27.8" r="0.32" fill="white" opacity="0.85"/><circle cx="456.8" cy="349.7" r="0.56" fill="white" opacity="0.34"/><circle cx="1424.1" cy="568.2" r="1.42" fill="white" opacity="0.63"/><circle cx="1493.8" cy="554.3" r="0.46" fill="white" opacity="0.65"/><circle cx="1815.2" cy="46.8" r="1.47" fill="white" opacity="0.91"/><circle cx="1001.2" cy="494.7" r="1.75" fill="white" opacity="0.34"/><circle cx="919.6" cy="433.7" r="1.33" fill="white" opacity="0.64"/><circle cx="1746.6" cy="79.4" r="0.42" fill="white" opacity="0.73"/><circle cx="126.1" cy="297.0" r="1.25" fill="white" opacity="0.68"/><circle cx="624.4" cy="1074.2" r="1.10" fill="white" opacity="0.62"/><circle cx="1162.4" cy="107.1" r="1.35" fill="white" opacity="0.90"/><circle cx="1249.8" cy="830.5" r="1.38" fill="white" opacity="0.45"/><circle cx="867.0" cy="246.8" r="0.81" fill="white" opacity="0.62"/><circle cx="798.7" cy="102.7" r="0.94" fill="white" opacity="0.77"/><circle cx="718.7" cy="164.9" r="1.68" fill="white" opacity="0.35"/><circle cx="1597.0" cy="100.7" r="0.44" fill="white" opacity="0.82"/><circle cx="1558.6" cy="600.9" r="1.18" fill="white" opacity="0.69"/><circle cx="632.9" cy="132.0" r="0.83" fill="white" opacity="0.77"/><circle cx="1440.5" cy="937.5" r="1.38" fill="white" opacity="0.98"/><circle cx="1152.8" cy="379.8" r="1.17" fill="white" opacity="0.45"/><circle cx="1260.9" cy="242.2" r="0.46" fill="white" opacity="0.89"/><circle cx="705.7" cy="823.6" r="1.16" fill="white" opacity="0.87"/><circle cx="1622.7" cy="1052.5" r="1.53" fill="white" opacity="0.73"/><circle cx="1234.0" cy="28.4" r="1.69" fill="white" opacity="0.88"/><circle cx="513.5" cy="194.8" r="1.35" fill="white" opacity="0.52"/><circle cx="652.5" cy="6.6" r="1.60" fill="white" opacity="0.70"/><circle cx="769.5" cy="153.2" r="1.25" fill="white" opacity="0.32"/><circle cx="1432.5" cy="232.3" r="0.93" fill="white" opacity="0.54"/><circle cx="710.5" cy="779.3" r="1.47" fill="white" opacity="0.70"/><circle cx="163.1" cy="56.8" r="0.54" fill="white" opacity="0.73"/><circle cx="1294.0" cy="293.9" r="1.29" fill="white" opacity="0.64"/><circle cx="848.7" cy="295.0" r="1.43" fill="white" opacity="0.38"/><circle cx="825.4" cy="305.9" r="1.32" fill="white" opacity="0.64"/><circle cx="1280.9" cy="49.1" r="0.89" fill="white" opacity="0.72"/><circle cx="14.8" cy="325.5" r="0.62" fill="white" opacity="0.40"/><circle cx="490.6" cy="354.4" r="0.31" fill="white" opacity="0.82"/><circle cx="337.3" cy="410.6" r="1.36" fill="white" opacity="0.65"/><circle cx="1600.0" cy="870.7" r="0.41" fill="white" opacity="0.90"/><circle cx="81.2" cy="20.2" r="1.68" fill="white" opacity="0.90"/><circle cx="1105.5" cy="619.3" r="1.36" fill="white" opacity="0.59"/><circle cx="221.1" cy="22.5" r="0.79" fill="white" opacity="0.86"/><circle cx="1186.8" cy="898.6" r="1.68" fill="white" opacity="0.36"/><circle cx="1621.4" cy="262.8" r="1.18" fill="white" opacity="0.67"/><circle cx="759.9" cy="335.1" r="0.81" fill="white" opacity="0.53"/><circle cx="322.8" cy="551.3" r="0.47" fill="white" opacity="0.66"/><circle cx="1739.4" cy="377.3" r="1.39" fill="white" opacity="0.87"/><circle cx="1564.9" cy="255.2" r="0.52" fill="white" opacity="0.44"/><circle cx="1156.6" cy="821.0" r="1.28" fill="white" opacity="0.42"/><circle cx="1483.9" cy="533.6" r="1.43" fill="white" opacity="0.83"/><circle cx="861.9" cy="998.1" r="1.15" fill="white" opacity="0.74"/><circle cx="1199.1" cy="933.4" r="1.24" fill="white" opacity="0.41"/><circle cx="131.1" cy="477.6" r="0.75" fill="white" opacity="0.49"/><circle cx="107.9" cy="547.9" r="0.77" fill="white" opacity="0.62"/><circle cx="109.2" cy="898.2" r="0.42" fill="white" opacity="0.90"/><circle cx="1642.2" cy="664.2" r="1.06" fill="white" opacity="0.62"/><circle cx="1064.3" cy="855.2" r="1.64" fill="white" opacity="0.61"/><circle cx="1554.8" cy="704.0" r="0.78" fill="white" opacity="0.63"/><circle cx="289.7" cy="66.8" r="0.46" fill="white" opacity="0.93"/><circle cx="659.4" cy="771.5" r="1.06" fill="white" opacity="0.42"/><circle cx="475.7" cy="472.8" r="0.96" fill="white" opacity="0.67"/><circle cx="304.8" cy="402.7" r="0.72" fill="white" opacity="0.59"/><circle cx="649.7" cy="645.7" r="1.48" fill="white" opacity="0.75"/><circle cx="126.6" cy="102.1" r="1.32" fill="white" opacity="0.50"/><circle cx="1389.6" cy="709.1" r="1.66" fill="white" opacity="0.91"/><circle cx="640.1" cy="629.4" r="0.51" fill="white" opacity="0.54"/><circle cx="1858.0" cy="754.4" r="0.89" fill="white" opacity="0.72"/><circle cx="1801.0" cy="334.3" r="0.87" fill="white" opacity="0.85"/><circle cx="1561.3" cy="723.7" r="1.54" fill="white" opacity="0.82"/><circle cx="1316.0" cy="568.5" r="1.27" fill="white" opacity="0.60"/><circle cx="694.7" cy="391.6" r="0.57" fill="white" opacity="0.45"/><circle cx="1819.5" cy="525.2" r="0.64" fill="white" opacity="0.40"/><circle cx="148.2" cy="912.0" r="0.45" fill="white" opacity="0.84"/><circle cx="1603.4" cy="954.4" r="0.36" fill="white" opacity="0.54"/><circle cx="1471.3" cy="141.5" r="0.87" fill="white" opacity="0.41"/><circle cx="1596.2" cy="832.8" r="1.51" fill="white" opacity="0.42"/><circle cx="840.3" cy="443.7" r="1.31" fill="white" opacity="0.47"/><circle cx="852.9" cy="307.7" r="1.42" fill="white" opacity="0.61"/><circle cx="1025.3" cy="334.2" r="1.51" fill="white" opacity="0.63"/><circle cx="1603.4" cy="397.3" r="1.72" fill="white" opacity="0.99"/><circle cx="886.4" cy="304.3" r="0.87" fill="white" opacity="0.67"/><circle cx="1855.2" cy="882.2" r="1.50" fill="white" opacity="0.40"/><circle cx="480.0" cy="692.5" r="1.61" fill="white" opacity="0.69"/><circle cx="197.0" cy="913.6" r="1.58" fill="white" opacity="0.50"/><circle cx="1465.2" cy="294.6" r="1.66" fill="white" opacity="0.40"/><circle cx="839.9" cy="1022.1" r="0.63" fill="white" opacity="0.62"/><circle cx="671.2" cy="28.8" r="0.38" fill="white" opacity="0.65"/><circle cx="452.7" cy="1074.1" r="0.86" fill="white" opacity="0.32"/><circle cx="1787.2" cy="906.3" r="1.27" fill="white" opacity="0.85"/><circle cx="264.2" cy="309.8" r="1.54" fill="white" opacity="0.79"/><circle cx="266.5" cy="762.0" r="0.97" fill="white" opacity="0.30"/><circle cx="152.1" cy="276.4" r="1.55" fill="white" opacity="0.68"/><circle cx="1396.3" cy="570.0" r="0.47" fill="white" opacity="0.50"/><circle cx="578.2" cy="51.6" r="0.93" fill="white" opacity="0.86"/><circle cx="877.7" cy="119.7" r="1.66" fill="white" opacity="0.72"/><circle cx="31.6" cy="556.6" r="0.66" fill="white" opacity="0.40"/><circle cx="824.1" cy="664.0" r="0.66" fill="white" opacity="0.59"/><circle cx="1275.6" cy="92.5" r="1.76" fill="white" opacity="0.35"/><circle cx="1010.0" cy="547.9" r="1.78" fill="white" opacity="0.69"/><circle cx="749.7" cy="507.7" r="1.25" fill="white" opacity="0.99"/><circle cx="487.0" cy="17.5" r="1.48" fill="white" opacity="0.54"/><circle cx="1407.2" cy="678.5" r="1.46" fill="white" opacity="0.81"/><circle cx="638.4" cy="47.9" r="1.12" fill="white" opacity="0.87"/><circle cx="336.2" cy="841.5" r="1.00" fill="white" opacity="0.79"/><circle cx="1212.9" cy="876.4" r="0.39" fill="white" opacity="0.84"/><circle cx="878.7" cy="316.9" r="0.37" fill="white" opacity="0.44"/><circle cx="80.5" cy="1008.0" r="1.07" fill="white" opacity="0.99"/><circle cx="1042.6" cy="273.6" r="1.43" fill="white" opacity="0.43"/><circle cx="685.4" cy="843.3" r="1.60" fill="white" opacity="0.53"/><circle cx="239.0" cy="397.5" r="1.63" fill="white" opacity="0.82"/><circle cx="1717.7" cy="417.6" r="1.76" fill="white" opacity="0.65"/><circle cx="955.2" cy="998.3" r="1.08" fill="white" opacity="0.86"/><circle cx="1396.0" cy="85.2" r="1.20" fill="white" opacity="0.88"/><circle cx="1047.3" cy="346.9" r="0.42" fill="white" opacity="0.76"/><circle cx="588.5" cy="650.8" r="0.94" fill="white" opacity="0.78"/><circle cx="675.0" cy="45.7" r="1.61" fill="white" opacity="0.55"/><circle cx="1916.4" cy="296.5" r="1.77" fill="white" opacity="0.96"/><circle cx="144.1" cy="688.5" r="0.84" fill="white" opacity="0.86"/><circle cx="1304.5" cy="1029.0" r="0.51" fill="white" opacity="0.73"/><circle cx="1500.1" cy="37.6" r="0.40" fill="white" opacity="0.84"/><circle cx="703.4" cy="413.5" r="1.15" fill="white" opacity="0.72"/><circle cx="1303.8" cy="1024.7" r="0.86" fill="white" opacity="0.83"/><circle cx="1101.9" cy="571.8" r="0.90" fill="white" opacity="0.75"/><circle cx="479.3" cy="122.5" r="1.40" fill="white" opacity="0.65"/><circle cx="743.0" cy="606.6" r="0.69" fill="white" opacity="0.48"/><circle cx="856.8" cy="1076.1" r="0.73" fill="white" opacity="0.94"/><circle cx="943.1" cy="132.4" r="1.58" fill="white" opacity="0.62"/><circle cx="1725.5" cy="480.7" r="0.43" fill="white" opacity="0.78"/><circle cx="1623.4" cy="345.2" r="0.82" fill="white" opacity="0.35"/><circle cx="1041.0" cy="962.6" r="1.58" fill="white" opacity="0.80"/><circle cx="1780.5" cy="688.7" r="1.49" fill="white" opacity="0.66"/><circle cx="233.0" cy="217.1" r="0.51" fill="white" opacity="0.85"/><circle cx="50.5" cy="598.3" r="0.85" fill="white" opacity="0.86"/><circle cx="1059.2" cy="660.9" r="0.43" fill="white" opacity="0.52"/><circle cx="1919.2" cy="776.4" r="1.09" fill="white" opacity="0.84"/><circle cx="1580.8" cy="79.7" r="1.76" fill="white" opacity="0.75"/><circle cx="864.0" cy="734.5" r="0.82" fill="white" opacity="0.91"/><circle cx="1498.1" cy="691.0" r="0.57" fill="white" opacity="0.98"/><circle cx="830.6" cy="983.6" r="0.38" fill="white" opacity="0.39"/><circle cx="293.8" cy="177.8" r="0.78" fill="white" opacity="0.80"/><circle cx="664.4" cy="1016.2" r="1.64" fill="white" opacity="0.89"/><circle cx="481.2" cy="685.9" r="1.13" fill="white" opacity="0.39"/><circle cx="581.4" cy="576.2" r="1.05" fill="white" opacity="0.42"/>
  <circle cx="1719.6" cy="196.5" r="2.8" fill="white" opacity="0.95"/><circle cx="1719.6" cy="196.5" r="8.5" fill="white" opacity="0.08"/><circle cx="1339.5" cy="624.9" r="3.2" fill="white" opacity="0.95"/><circle cx="1339.5" cy="624.9" r="9.6" fill="white" opacity="0.08"/><circle cx="1069.4" cy="834.0" r="1.6" fill="white" opacity="0.95"/><circle cx="1069.4" cy="834.0" r="4.7" fill="white" opacity="0.08"/><circle cx="178.2" cy="659.4" r="2.7" fill="white" opacity="0.95"/><circle cx="178.2" cy="659.4" r="8.0" fill="white" opacity="0.08"/><circle cx="1219.9" cy="778.6" r="2.3" fill="white" opacity="0.95"/><circle cx="1219.9" cy="778.6" r="7.0" fill="white" opacity="0.08"/><circle cx="1199.1" cy="523.1" r="2.8" fill="white" opacity="0.95"/><circle cx="1199.1" cy="523.1" r="8.3" fill="white" opacity="0.08"/><circle cx="598.2" cy="958.8" r="2.5" fill="white" opacity="0.95"/><circle cx="598.2" cy="958.8" r="7.4" fill="white" opacity="0.08"/><circle cx="1484.1" cy="700.7" r="2.1" fill="white" opacity="0.95"/><circle cx="1484.1" cy="700.7" r="6.3" fill="white" opacity="0.08"/><circle cx="225.5" cy="106.9" r="2.4" fill="white" opacity="0.95"/><circle cx="225.5" cy="106.9" r="7.1" fill="white" opacity="0.08"/><circle cx="932.9" cy="243.8" r="2.7" fill="white" opacity="0.95"/><circle cx="932.9" cy="243.8" r="8.1" fill="white" opacity="0.08"/><circle cx="637.6" cy="732.4" r="3.0" fill="white" opacity="0.95"/><circle cx="637.6" cy="732.4" r="8.9" fill="white" opacity="0.08"/><circle cx="1580.5" cy="976.6" r="1.8" fill="white" opacity="0.95"/><circle cx="1580.5" cy="976.6" r="5.3" fill="white" opacity="0.08"/><circle cx="737.3" cy="583.6" r="2.1" fill="white" opacity="0.95"/><circle cx="737.3" cy="583.6" r="6.4" fill="white" opacity="0.08"/><circle cx="902.3" cy="304.1" r="2.0" fill="white" opacity="0.95"/><circle cx="902.3" cy="304.1" r="6.0" fill="white" opacity="0.08"/><circle cx="266.5" cy="325.7" r="2.3" fill="white" opacity="0.95"/><circle cx="266.5" cy="325.7" r="6.8" fill="white" opacity="0.08"/><circle cx="1158.4" cy="285.9" r="3.2" fill="white" opacity="0.95"/><circle cx="1158.4" cy="285.9" r="9.7" fill="white" opacity="0.08"/><circle cx="374.7" cy="361.1" r="2.7" fill="white" opacity="0.95"/><circle cx="374.7" cy="361.1" r="8.0" fill="white" opacity="0.08"/><circle cx="637.9" cy="775.0" r="2.5" fill="white" opacity="0.95"/><circle cx="637.9" cy="775.0" r="7.5" fill="white" opacity="0.08"/><circle cx="985.3" cy="523.8" r="2.1" fill="white" opacity="0.95"/><circle cx="985.3" cy="523.8" r="6.4" fill="white" opacity="0.08"/><circle cx="139.9" cy="948.0" r="2.5" fill="white" opacity="0.95"/><circle cx="139.9" cy="948.0" r="7.5" fill="white" opacity="0.08"/>
  <rect width="1920" height="1080" fill="url(#cluster)" filter="url(#blur1)"/>
</svg>