<svg xmlns="http://www.w3.org/2000/svg" viewBox="0 0 1920 1080" width="1920" height="1080">
  <defs>
    <radialGradient id="bg" cx="50%" cy="50%" r="80%">
      <stop offset="0%" stop-color="#0a0805"/>
      <stop offset="100%" stop-color="#000000"/>
    </radialGradient>
    <radialGradient id="ringlow" cx="50%" cy="50%" r="45%">
      <stop offset="0%" stop-color="#000000" stop-opacity="1"/>
      <stop offset="35%" stop-color="#000000" stop-opacity="0.95"/>
      <stop offset="42%" stop-color="#3a1800" stop-opacity="0.4"/>
      <stop offset="48%" stop-color="#7a3400" stop-opacity="0.15"/>
      <stop offset="60%" stop-color="#000000" stop-opacity="0"/>
    </radialGradient>
    <radialGradient id="outglow" cx="50%" cy="50%" r="55%">
      <stop offset="37%" stop-color="#000000" stop-opacity="0"/>
      <stop offset="44%" stop-color="#c07000" stop-opacity="0.12"/>
      <stop offset="50%" stop-color="#ff9010" stop-opacity="0.25"/>
      <stop offset="56%" stop-color="#c07000" stop-opacity="0.10"/>
      <stop offset="65%" stop-color="#000000" stop-opacity="0"/>
    </radialGradient>
    <filter id="rblur"><feGaussianBlur stdDeviation="6"/></filter>
    <filter id="softblur"><feGaussianBlur stdDeviation="18"/></filter>
  </defs>
  <rect width="1920" height="1080" fill="url(#bg)"/>
  <circle cx="343.3" cy="268.3" r="0.98" fill="white" opacity="0.18"/><circle cx="1034.2" cy="1013.4" r="0.74" fill="white" opacity="0.23"/><circle cx="1731.8" cy="403.9" r="0.65" fill="white" opacity="0.30"/><circle cx="292.4" cy="713.4" r="1.06" fill="white" opacity="0.20"/><circle cx="1818.0" cy="571.0" r="1.00" fill="white" opacity="0.24"/><circle cx="14.6" cy="220.1" r="1.19" fill="white" opacity="0.26"/><circle cx="887.2" cy="972.3" r="0.84" fill="white" opacity="0.39"/><circle cx="686.4" cy="233.1" r="1.13" fill="white" opacity="0.15"/><circle cx="1520.3" cy="643.1" r="1.18" fill="white" opacity="0.38"/><circle cx="1267.8" cy="40.0" r="0.32" fill="white" opacity="0.24"/><circle cx="1573.8" cy="87.7" r="0.68" fill="white" opacity="0.13"/><circle cx="594.8" cy="6.1" r="0.60" fill="white" opacity="0.26"/><circle cx="385.5" cy="850.2" r="0.35" fill="white" opacity="0.16"/><circle cx="494.5" cy="436.4" r="0.99" fill="white" opacity="0.21"/><circle cx="1334.4" cy="996.0" r="0.42" fill="white" opacity="0.36"/><circle cx="185.2" cy="155.2" r="0.46" fill="white" opacity="0.15"/><circle cx="279.4" cy="224.2" r="0.80" fill="white" opacity="0.33"/><circle cx="1532.1" cy="913.8" r="0.41" fill="white" opacity="0.35"/><circle cx="357.0" cy="78.2" r="0.56" fill="white" opacity="0.28"/><circle cx="91.5" cy="233.6" r="0.66" fill="white" opacity="0.35"/><circle cx="712.3" cy="100.1" r="1.09" fill="white" opacity="0.38"/><circle cx="1385.6" cy="430.5" r="0.70" fill="white" opacity="0.19"/><circle cx="596.5" cy="944.2" r="0.95" fill="white" opacity="0.17"/><circle cx="1553.8" cy="728.2" r="0.52" fill="white" opacity="0.19"/><circle cx="1442.9" cy="86.5" r="0.69" fill="white" opacity="0.39"/><circle cx="491.9" cy="543.4" r="1.12" fill="white" opacity="0.36"/><circle cx="1513.4" cy="575.9" r="1.14" fill="white" opacity="0.18"/><circle cx="1692.6" cy="442.1" r="0.89" fill="white" opacity="0.28"/><circle cx="542.0" cy="732.5" r="0.84" fill="white" opacity="0.40"/><circle cx="729.3" cy="958.5" r="0.61" fill="white" opacity="0.30"/><circle cx="1333.1" cy="1041.8" r="0.47" fill="white" opacity="0.30"/><circle cx="329.6" cy="691.3" r="0.89" fill="white" opacity="0.32"/><circle cx="1663.2" cy="249.7" r="1.07" fill="white" opacity="0.20"/><circle cx="767.8" cy="121.3" r="0.78" fill="white" opacity="0.10"/><circle cx="596.2" cy="726.1" r="0.97" fill="white" opacity="0.15"/><circle cx="1507.0" cy="479.6" r="0.48" fill="white" opacity="0.32"/><circle cx="1418.7" cy="505.5" r="0.78" fill="white" opacity="0.29"/><circle cx="1212.9" cy="826.2" r="0.99" fill="white" opacity="0.16"/><circle cx="39.6" cy="113.6" r="0.58" fill="white" opacity="0.27"/><circle cx="1845.4" cy="450.1" r="0.63" fill="white" opacity="0.27"/><circle cx="1820.8" cy="635.1" r="0.57" fill="white" opacity="0.33"/><circle cx="1904.3" cy="857.1" r="0.66" fill="white" opacity="0.15"/><circle cx="884.8" cy="138.7" r="0.42" fill="white" opacity="0.23"/><circle cx="1632.4" cy="758.0" r="0.68" fill="white" opacity="0.39"/><circle cx="343.4" cy="270.2" r="0.55" fill="white" opacity="0.27"/><circle cx="1708.3" cy="413.3" r="1.04" fill="white" opacity="0.38"/><circle cx="920.0" cy="964.4" r="1.10" fill="white" opacity="0.24"/><circle cx="325.4" cy="80.7" r="0.52" fill="white" opacity="0.24"/><circle cx="29.6" cy="356.1" r="0.74" fill="white" opacity="0.20"/><circle cx="1408.8" cy="615.2" r="0.78" fill="white" opacity="0.29"/><circle cx="318.7" cy="635.2" r="0.34" fill="white" opacity="0.11"/><circle cx="657.4" cy="248.4" r="0.98" fill="white" opacity="0.15"/><circle cx="225.0" cy="185.6" r="0.55" fill="white" opacity="0.21"/><circle cx="1253.0" cy="880.4" r="0.37" fill="white" opacity="0.30"/><circle cx="1391.5" cy="891.1" r="0.44" fill="white" opacity="0.13"/><circle cx="1457.6" cy="698.3" r="0.45" fill="white" opacity="0.36"/><circle cx="1376.5" cy="664.2" r="0.98" fill="white" opacity="0.28"/><circle cx="653.0" cy="57.0" r="0.61" fill="white" opacity="0.29"/><circle cx="360.9" cy="193.9" r="0.40" fill="white" opacity="0.25"/><circle cx="1856.0" cy="789.1" r="0.31" fill="white" opacity="0.21"/><circle cx="1309.7" cy="104.7" r="1.02" fill="white" opacity="0.17"/><circle cx="1678.5" cy="86.6" r="1.04" fill="white" opacity="0.36"/><circle cx="1610.1" cy="836.0" r="0.64" fill="white" opacity="0.19"/><circle cx="87.6" cy="428.2" r="0.57" fill="white" opacity="0.15"/><circle cx="1811.8" cy="951.4" r="1.03" fill="white" opacity="0.19"/><circle cx="237.3" cy="461.7" r="0.37" fill="white" opacity="0.21"/><circle cx="1591.8" cy="37.3" r="1.03" fill="white" opacity="0.28"/><circle cx="35.6" cy="932.1" r="0.56" fill="white" opacity="0.22"/><circle cx="983.6" cy="973.3" r="0.51" fill="white" opacity="0.26"/><circle cx="1904.0" cy="229.1" r="0.88" fill="white" opacity="0.15"/><circle cx="1085.9" cy="31.0" r="0.48" fill="white" opacity="0.37"/><circle cx="345.1" cy="324.5" r="1.19" fill="white" opacity="0.18"/><circle cx="6.2" cy="695.1" r="0.75" fill="white" opacity="0.38"/><circle cx="1875.2" cy="79.9" r="0.83" fill="white" opacity="0.20"/><circle cx="253.6" cy="990.3" r="0.38" fill="white" opacity="0.25"/><circle cx="446.6" cy="618.7" r="0.49" fill="white" opacity="0.36"/><circle cx="1537.2" cy="145.4" r="0.96" fill="white" opacity="0.17"/><circle cx="1614.5" cy="277.1" r="0.89" fill="white" opacity="0.30"/><circle cx="968.6" cy="940.3" r="0.79" fill="white" opacity="0.17"/><circle cx="139.2" cy="270.5" r="0.99" fill="white" opacity="0.20"/><circle cx="363.1" cy="856.9" r="0.33" fill="white" opacity="0.11"/><circle cx="119.3" cy="204.8" r="0.34" fill="white" opacity="0.19"/><circle cx="515.0" cy="997.0" r="0.53" fill="white" opacity="0.27"/><circle cx="567.0" cy="783.7" r="0.40" fill="white" opacity="0.20"/><circle cx="273.2" cy="329.5" r="0.53" fill="white" opacity="0.24"/><circle cx="1811.6" cy="29.4" r="0.51" fill="white" opacity="0.28"/><circle cx="1602.9" cy="410.0" r="0.62" fill="white" opacity="0.20"/><circle cx="1497.2" cy="23.3" r="0.46" fill="white" opacity="0.17"/><circle cx="135.3" cy="0.8" r="0.40" fill="white" opacity="0.23"/><circle cx="1328.4" cy="1050.5" r="0.63" fill="white" opacity="0.23"/><circle cx="1682.1" cy="829.1" r="1.11" fill="white" opacity="0.18"/><circle cx="1367.2" cy="873.1" r="0.55" fill="white" opacity="0.17"/><circle cx="1786.2" cy="237.3" r="0.59" fill="white" opacity="0.13"/><circle cx="1682.5" cy="671.1" r="0.52" fill="white" opacity="0.23"/><circle cx="853.8" cy="18.2" r="0.97" fill="white" opacity="0.12"/><circle cx="542.0" cy="825.7" r="1.11" fill="white" opacity="0.31"/><circle cx="817.6" cy="1003.8" r="0.59" fill="white" opacity="0.40"/><circle cx="1673.3" cy="114.3" r="0.56" fill="white" opacity="0.33"/><circle cx="130.8" cy="999.3" r="0.71" fill="white" opacity="0.25"/><circle cx="1912.5" cy="91.9" r="0.32" fill="white" opacity="0.27"/><circle cx="1217.7" cy="931.4" r="0.47" fill="white" opacity="0.36"/><circle cx="37.6" cy="863.3" r="0.50" fill="white" opacity="0.30"/><circle cx="1907.1" cy="13.7" r="0.69" fill="white" opacity="0.38"/><circle cx="550.8" cy="904.9" r="1.04" fill="white" opacity="0.31"/><circle cx="1916.8" cy="762.1" r="0.39" fill="white" opacity="0.35"/><circle cx="1443.4" cy="417.0" r="0.39" fill="white" opacity="0.18"/><circle cx="1894.4" cy="171.0" r="0.55" fill="white" opacity="0.14"/><circle cx="1437.2" cy="894.7" r="0.53" fill="white" opacity="0.22"/><circle cx="1705.8" cy="645.6" r="0.50" fill="white" opacity="0.40"/><circle cx="1477.7" cy="331.2" r="0.70" fill="white" opacity="0.25"/><circle cx="286.1" cy="355.4" r="0.42" fill="white" opacity="0.25"/><circle cx="135.5" cy="600.2" r="1.00" fill="white" opacity="0.27"/><circle cx="648.5" cy="848.2" r="0.66" fill="white" opacity="0.34"/><circle cx="20.2" cy="95.5" r="0.71" fill="white" opacity="0.13"/><circle cx="374.6" cy="1007.9" r="1.00" fill="white" opacity="0.19"/><circle cx="219.9" cy="789.9" r="0.94" fill="white" opacity="0.15"/><circle cx="170.9" cy="120.5" r="0.32" fill="white" opacity="0.35"/><circle cx="571.7" cy="361.6" r="0.34" fill="white" opacity="0.29"/><circle cx="480.2" cy="585.6" r="0.61" fill="white" opacity="0.20"/><circle cx="82.6" cy="351.1" r="1.12" fill="white" opacity="0.38"/><circle cx="1754.8" cy="918.9" r="1.03" fill="white" opacity="0.29"/><circle cx="1844.2" cy="652.0" r="0.80" fill="white" opacity="0.32"/><circle cx="1622.3" cy="576.6" r="0.32" fill="white" opacity="0.28"/><circle cx="660.6" cy="138.6" r="0.34" fill="white" opacity="0.26"/><circle cx="1833.7" cy="602.7" r="1.05" fill="white" opacity="0.15"/><circle cx="631.5" cy="1031.7" r="0.92" fill="white" opacity="0.32"/><circle cx="567.5" cy="721.4" r="0.61" fill="white" opacity="0.16"/><circle cx="302.5" cy="189.6" r="0.38" fill="white" opacity="0.22"/><circle cx="1665.6" cy="588.4" r="0.64" fill="white" opacity="0.29"/><circle cx="1770.7" cy="279.7" r="1.13" fill="white" opacity="0.39"/><circle cx="675.3" cy="68.2" r="0.91" fill="white" opacity="0.38"/><circle cx="454.8" cy="134.2" r="0.90" fill="white" opacity="0.19"/><circle cx="1791.8" cy="440.5" r="0.42" fill="white" opacity="0.30"/><circle cx="1884.7" cy="140.0" r="1.17" fill="white" opacity="0.30"/><circle cx="1474.0" cy="1021.1" r="0.79" fill="white" opacity="0.26"/><circle cx="273.4" cy="444.2" r="0.80" fill="white" opacity="0.18"/><circle cx="1608.3" cy="373.3" r="1.11" fill="white" opacity="0.17"/><circle cx="578.9" cy="841.9" r="1.19" fill="white" opacity="0.14"/><circle cx="1557.5" cy="75.5" r="0.62" fill="white" opacity="0.39"/><circle cx="1853.1" cy="1001.2" r="0.62" fill="white" opacity="0.32"/><circle cx="1876.1" cy="69.8" r="1.05" fill="white" opacity="0.32"/><circle cx="1789.7" cy="487.1" r="0.88" fill="white" opacity="0.33"/><circle cx="415.9" cy="48.2" r="0.50" fill="white" opacity="0.40"/>
  <!-- Outer glow rings (blurred) -->
  <g filter="url(#rblur)"><circle cx="960" cy="540" r="480" fill="none" stroke="#e58c0a" stroke-width="2.00" opacity="0.450"/><circle cx="960" cy="540" r="458" fill="none" stroke="#de8609" stroke-width="1.91" opacity="0.387"/><circle cx="960" cy="540" r="436" fill="none" stroke="#d68008" stroke-width="1.82" opacity="0.329"/><circle cx="960" cy="540" r="414" fill="none" stroke="#cf7a08" stroke-width="1.74" opacity="0.277"/><circle cx="960" cy="540" r="392" fill="none" stroke="#c77407" stroke-width="1.65" opacity="0.230"/><circle cx="960" cy="540" r="370" fill="none" stroke="#c06f07" stroke-width="1.56" opacity="0.188"/><circle cx="960" cy="540" r="348" fill="none" stroke="#b86906" stroke-width="1.47" opacity="0.152"/><circle cx="960" cy="540" r="326" fill="none" stroke="#b16305" stroke-width="1.38" opacity="0.119"/><circle cx="960" cy="540" r="304" fill="none" stroke="#a95d05" stroke-width="1.29" opacity="0.092"/><circle cx="960" cy="540" r="282" fill="none" stroke="#a25804" stroke-width="1.21" opacity="0.068"/><circle cx="960" cy="540" r="260" fill="none" stroke="#9a5204" stroke-width="1.12" opacity="0.049"/><circle cx="960" cy="540" r="238" fill="none" stroke="#934c03" stroke-width="1.03" opacity="0.033"/><circle cx="960" cy="540" r="216" fill="none" stroke="#8b4602" stroke-width="0.94" opacity="0.021"/><circle cx="960" cy="540" r="194" fill="none" stroke="#844102" stroke-width="0.85" opacity="0.020"/><circle cx="960" cy="540" r="172" fill="none" stroke="#7c3b01" stroke-width="0.76" opacity="0.020"/><circle cx="960" cy="540" r="150" fill="none" stroke="#753501" stroke-width="0.68" opacity="0.020"/><circle cx="960" cy="540" r="128" fill="none" stroke="#6d2f00" stroke-width="0.59" opacity="0.020"/><circle cx="960" cy="540" r="106" fill="none" stroke="#662a00" stroke-width="0.50" opacity="0.020"/><circle cx="960" cy="540" r="420" fill="none" stroke="#d4880a" stroke-width="2.5" opacity="0.7"/><circle cx="960" cy="540" r="420" fill="none" stroke="#ffa020" stroke-width="0.8" opacity="0.5"/></g>
  <!-- Radial gradient ring glow overlays -->
  <rect width="1920" height="1080" fill="url(#outglow)" filter="url(#softblur)"/>
  <!-- Black hole disc -->
  <circle cx="960" cy="540" r="390" fill="#000000"/>
  <rect width="1920" height="1080" fill="url(#ringlow)"/>
  <!-- Crisp ring line -->
  <circle cx="960" cy="540" r="420" fill="none" stroke="#e89020" stroke-width="1.5" opacity="0.8"/>
</svg>