<svg xmlns="http://www.w3.org/2000/svg" viewBox="0 0 1920 1080" width="1920" height="1080">
  <defs>
    <linearGradient id="sky" x1="0" y1="0" x2="0" y2="1">
      <stop offset="0%" stop-color="#000000"/>
      <stop offset="45%" stop-color="#020a0a"/>
      <stop offset="100%" stop-color="#001010"/>
    </linearGradient>
    <radialGradient id="hglow" cx="50%" cy="48.1%" r="35%">
      <stop offset="0%" stop-color="#00ffee" stop-opacity="0.18"/>
      <stop offset="40%" stop-color="#00aacc" stop-opacity="0.06"/>
      <stop offset="100%" stop-color="#000000" stop-opacity="0"/>
    </radialGradient>
    <radialGradient id="sun" cx="50%" cy="50%" r="50%">
      <stop offset="0%" stop-color="#ffffff" stop-opacity="0.8"/>
      <stop offset="30%" stop-color="#00ffee" stop-opacity="0.6"/>
      <stop offset="70%" stop-color="#008899" stop-opacity="0.2"/>
      <stop offset="100%" stop-color="#000000" stop-opacity="0"/>
    </radialGradient>
    <filter id="hblur"><feGaussianBlur stdDeviation="3"/></filter>
    <filter id="sunblur"><feGaussianBlur stdDeviation="8"/></filter>
  </defs>
  <rect width="1920" height="1080" fill="url(#sky)"/>
  <rect width="1920" height="1080" fill="url(#hglow)"/>
  <line x1="0" y1="520.00" x2="1920" y2="520.00" stroke="#00e5cc" stroke-width="0.40" opacity="0.08"/><line x1="0" y1="521.06" x2="1920" y2="521.06" stroke="#00e5cc" stroke-width="0.46" opacity="0.10"/><line x1="0" y1="524.23" x2="1920" y2="524.23" stroke="#00e5cc" stroke-width="0.52" opacity="0.13"/><line x1="0" y1="529.53" x2="1920" y2="529.53" stroke="#00e5cc" stroke-width="0.58" opacity="0.15"/><line x1="0" y1="536.94" x2="1920" y2="536.94" stroke="#00e5cc" stroke-width="0.64" opacity="0.18"/><line x1="0" y1="546.47" x2="1920" y2="546.47" stroke="#00e5cc" stroke-width="0.70" opacity="0.20"/><line x1="0" y1="558.11" x2="1920" y2="558.11" stroke="#00e5cc" stroke-width="0.77" opacity="0.22"/><line x1="0" y1="571.87" x2="1920" y2="571.87" stroke="#00e5cc" stroke-width="0.83" opacity="0.25"/><line x1="0" y1="587.75" x2="1920" y2="587.75" stroke="#00e5cc" stroke-width="0.89" opacity="0.27"/><line x1="0" y1="605.75" x2="1920" y2="605.75" stroke="#00e5cc" stroke-width="0.95" opacity="0.30"/><line x1="0" y1="625.86" x2="1920" y2="625.86" stroke="#00e5cc" stroke-width="1.01" opacity="0.32"/><line x1="0" y1="648.09" x2="1920" y2="648.09" stroke="#00e5cc" stroke-width="1.07" opacity="0.34"/><line x1="0" y1="672.44" x2="1920" y2="672.44" stroke="#00e5cc" stroke-width="1.13" opacity="0.37"/><line x1="0" y1="698.90" x2="1920" y2="698.90" stroke="#00e5cc" stroke-width="1.19" opacity="0.39"/><line x1="0" y1="727.49" x2="1920" y2="727.49" stroke="#00e5cc" stroke-width="1.25" opacity="0.41"/><line x1="0" y1="758.19" x2="1920" y2="758.19" stroke="#00e5cc" stroke-width="1.31" opacity="0.44"/><line x1="0" y1="791.00" x2="1920" y2="791.00" stroke="#00e5cc" stroke-width="1.37" opacity="0.46"/><line x1="0" y1="825.94" x2="1920" y2="825.94" stroke="#00e5cc" stroke-width="1.43" opacity="0.49"/><line x1="0" y1="862.99" x2="1920" y2="862.99" stroke="#00e5cc" stroke-width="1.50" opacity="0.51"/><line x1="0" y1="902.16" x2="1920" y2="902.16" stroke="#00e5cc" stroke-width="1.56" opacity="0.53"/><line x1="0" y1="943.44" x2="1920" y2="943.44" stroke="#00e5cc" stroke-width="1.62" opacity="0.56"/><line x1="0" y1="986.84" x2="1920" y2="986.84" stroke="#00e5cc" stroke-width="1.68" opacity="0.58"/><line x1="0" y1="1032.36" x2="1920" y2="1032.36" stroke="#00e5cc" stroke-width="1.74" opacity="0.61"/><line x1="0" y1="1080.00" x2="1920" y2="1080.00" stroke="#00e5cc" stroke-width="1.80" opacity="0.63"/><line x1="960" y1="520" x2="0.0" y2="1080" stroke="#00e5cc" stroke-width="0.40" opacity="0.20"/><line x1="960" y1="520" x2="61.9" y2="1080" stroke="#00e5cc" stroke-width="0.46" opacity="0.22"/><line x1="960" y1="520" x2="123.9" y2="1080" stroke="#00e5cc" stroke-width="0.53" opacity="0.24"/><line x1="960" y1="520" x2="185.8" y2="1080" stroke="#00e5cc" stroke-width="0.59" opacity="0.26"/><line x1="960" y1="520" x2="247.7" y2="1080" stroke="#00e5cc" stroke-width="0.66" opacity="0.28"/><line x1="960" y1="520" x2="309.7" y2="1080" stroke="#00e5cc" stroke-width="0.72" opacity="0.30"/><line x1="960" y1="520" x2="371.6" y2="1080" stroke="#00e5cc" stroke-width="0.79" opacity="0.32"/><line x1="960" y1="520" x2="433.5" y2="1080" stroke="#00e5cc" stroke-width="0.85" opacity="0.34"/><line x1="960" y1="520" x2="495.5" y2="1080" stroke="#00e5cc" stroke-width="0.92" opacity="0.35"/><line x1="960" y1="520" x2="557.4" y2="1080" stroke="#00e5cc" stroke-width="0.98" opacity="0.37"/><line x1="960" y1="520" x2="619.4" y2="1080" stroke="#00e5cc" stroke-width="1.05" opacity="0.39"/><line x1="960" y1="520" x2="681.3" y2="1080" stroke="#00e5cc" stroke-width="1.11" opacity="0.41"/><line x1="960" y1="520" x2="743.2" y2="1080" stroke="#00e5cc" stroke-width="1.17" opacity="0.43"/><line x1="960" y1="520" x2="805.2" y2="1080" stroke="#00e5cc" stroke-width="1.24" opacity="0.45"/><line x1="960" y1="520" x2="867.1" y2="1080" stroke="#00e5cc" stroke-width="1.30" opacity="0.47"/><line x1="960" y1="520" x2="929.0" y2="1080" stroke="#00e5cc" stroke-width="1.37" opacity="0.49"/><line x1="960" y1="520" x2="991.0" y2="1080" stroke="#00e5cc" stroke-width="1.37" opacity="0.49"/><line x1="960" y1="520" x2="1052.9" y2="1080" stroke="#00e5cc" stroke-width="1.30" opacity="0.47"/><line x1="960" y1="520" x2="1114.8" y2="1080" stroke="#00e5cc" stroke-width="1.24" opacity="0.45"/><line x1="960" y1="520" x2="1176.8" y2="1080" stroke="#00e5cc" stroke-width="1.17" opacity="0.43"/><line x1="960" y1="520" x2="1238.7" y2="1080" stroke="#00e5cc" stroke-width="1.11" opacity="0.41"/><line x1="960" y1="520" x2="1300.6" y2="1080" stroke="#00e5cc" stroke-width="1.05" opacity="0.39"/><line x1="960" y1="520" x2="1362.6" y2="1080" stroke="#00e5cc" stroke-width="0.98" opacity="0.37"/><line x1="960" y1="520" x2="1424.5" y2="1080" stroke="#00e5cc" stroke-width="0.92" opacity="0.35"/><line x1="960" y1="520" x2="1486.5" y2="1080" stroke="#00e5cc" stroke-width="0.85" opacity="0.34"/><line x1="960" y1="520" x2="1548.4" y2="1080" stroke="#00e5cc" stroke-width="0.79" opacity="0.32"/><line x1="960" y1="520" x2="1610.3" y2="1080" stroke="#00e5cc" stroke-width="0.72" opacity="0.30"/><line x1="960" y1="520" x2="1672.3" y2="1080" stroke="#00e5cc" stroke-width="0.66" opacity="0.28"/><line x1="960" y1="520" x2="1734.2" y2="1080" stroke="#00e5cc" stroke-width="0.59" opacity="0.26"/><line x1="960" y1="520" x2="1796.1" y2="1080" stroke="#00e5cc" stroke-width="0.53" opacity="0.24"/><line x1="960" y1="520" x2="1858.1" y2="1080" stroke="#00e5cc" stroke-width="0.46" opacity="0.22"/><line x1="960" y1="520" x2="1920.0" y2="1080" stroke="#00e5cc" stroke-width="0.40" opacity="0.20"/><line x1="960" y1="520" x2="0.0" y2="0" stroke="#00e5cc" stroke-width="0.4" opacity="0.02"/><line x1="960" y1="520" x2="123.9" y2="0" stroke="#00e5cc" stroke-width="0.4" opacity="0.03"/><line x1="960" y1="520" x2="247.7" y2="0" stroke="#00e5cc" stroke-width="0.4" opacity="0.03"/><line x1="960" y1="520" x2="371.6" y2="0" stroke="#00e5cc" stroke-width="0.4" opacity="0.04"/><line x1="960" y1="520" x2="495.5" y2="0" stroke="#00e5cc" stroke-width="0.4" opacity="0.04"/><line x1="960" y1="520" x2="619.4" y2="0" stroke="#00e5cc" stroke-width="0.4" opacity="0.05"/><line x1="960" y1="520" x2="743.2" y2="0" stroke="#00e5cc" stroke-width="0.4" opacity="0.05"/><line x1="960" y1="520" x2="867.1" y2="0" stroke="#00e5cc" stroke-width="0.4" opacity="0.06"/><line x1="960" y1="520" x2="991.0" y2="0" stroke="#00e5cc" stroke-width="0.4" opacity="0.06"/><line x1="960" y1="520" x2="1114.8" y2="0" stroke="#00e5cc" stroke-width="0.4" opacity="0.05"/><line x1="960" y1="520" x2="1238.7" y2="0" stroke="#00e5cc" stroke-width="0.4" opacity="0.05"/><line x1="960" y1="520" x2="1362.6" y2="0" stroke="#00e5cc" stroke-width="0.4" opacity="0.04"/><line x1="960" y1="520" x2="1486.5" y2="0" stroke="#00e5cc" stroke-width="0.4" opacity="0.04"/><line x1="960" y1="520" x2="1610.3" y2="0" stroke="#00e5cc" stroke-width="0.4" opacity="0.03"/><line x1="960" y1="520" x2="1734.2" y2="0" stroke="#00e5cc" stroke-width="0.4" opacity="0.03"/><line x1="960" y1="520" x2="1858.1" y2="0" stroke="#00e5cc" stroke-width="0.4" opacity="0.02"/><line x1="0" y1="520.00" x2="1920" y2="520.00" stroke="#00e5cc" stroke-width="0.3" opacity="0.09"/><line x1="0" y1="500.35" x2="1920" y2="500.35" stroke="#00e5cc" stroke-width="0.3" opacity="0.08"/><line x1="0" y1="464.41" x2="1920" y2="464.41" stroke="#00e5cc" stroke-width="0.3" opacity="0.07"/><line x1="0" y1="417.87" x2="1920" y2="417.87" stroke="#00e5cc" stroke-width="0.3" opacity="0.06"/><line x1="0" y1="362.77" x2="1920" y2="362.77" stroke="#00e5cc" stroke-width="0.3" opacity="0.06"/><line x1="0" y1="300.26" x2="1920" y2="300.26" stroke="#00e5cc" stroke-width="0.3" opacity="0.05"/><line x1="0" y1="231.14" x2="1920" y2="231.14" stroke="#00e5cc" stroke-width="0.3" opacity="0.04"/><line x1="0" y1="156.00" x2="1920" y2="156.00" stroke="#00e5cc" stroke-width="0.3" opacity="0.03"/>
  <!-- Horizon glow line -->
  <line x1="0" y1="520" x2="1920" y2="520" stroke="#00ffee" stroke-width="2.5" opacity="0.7" filter="url(#hblur)"/>
  <line x1="0" y1="520" x2="1920" y2="520" stroke="white" stroke-width="0.8" opacity="0.4"/>
  <!-- Sun circle -->
  <circle cx="960" cy="520" r="60" fill="url(#sun)" filter="url(#sunblur)"/>
  <circle cx="960" cy="520" r="18" fill="#00ffee" opacity="0.9"/>
  <circle cx="960" cy="520" r="10" fill="white" opacity="0.95"/>
  <!-- Scanlines -->
  <line x1="0" y1="0" x2="1920" y2="0" stroke="#000000" stroke-width="1.5" opacity="0.08"/><line x1="0" y1="4" x2="1920" y2="4" stroke="#000000" stroke-width="1.5" opacity="0.08"/><line x1="0" y1="8" x2="1920" y2="8" stroke="#000000" stroke-width="1.5" opacity="0.08"/><line x1="0" y1="12" x2="1920" y2="12" stroke="#000000" stroke-width="1.5" opacity="0.08"/><line x1="0" y1="16" x2="1920" y2="16" stroke="#000000" stroke-width="1.5" opacity="0.08"/><line x1="0" y1="20" x2="1920" y2="20" stroke="#000000" stroke-width="1.5" opacity="0.08"/><line x1="0" y1="24" x2="1920" y2="24" stroke="#000000" stroke-width="1.5" opacity="0.08"/><line x1="0" y1="28" x2="1920" y2="28" stroke="#000000" stroke-width="1.5" opacity="0.08"/><line x1="0" y1="32" x2="1920" y2="32" stroke="#000000" stroke-width="1.5" opacity="0.08"/><line x1="0" y1="36" x2="1920" y2="36" stroke="#000000" stroke-width="1.5" opacity="0.08"/><line x1="0" y1="40" x2="1920" y2="40" stroke="#000000" stroke-width="1.5" opacity="0.08"/><line x1="0" y1="44" x2="1920" y2="44" stroke="#000000" stroke-width="1.5" opacity="0.08"/><line x1="0" y1="48" x2="1920" y2="48" stroke="#000000" stroke-width="1.5" opacity="0.08"/><line x1="0" y1="52" x2="1920" y2="52" stroke="#000000" stroke-width="1.5" opacity="0.08"/><line x1="0" y1="56" x2="1920" y2="56" stroke="#000000" stroke-width="1.5" opacity="0.08"/><line x1="0" y1="60" x2="1920" y2="60" stroke="#000000" stroke-width="1.5" opacity="0.08"/><line x1="0" y1="64" x2="1920" y2="64" stroke="#000000" stroke-width="1.5" opacity="0.08"/><line x1="0" y1="68" x2="1920" y2="68" stroke="#000000" stroke-width="1.5" opacity="0.08"/><line x1="0" y1="72" x2="1920" y2="72" stroke="#000000" stroke-width="1.5" opacity="0.08"/><line x1="0" y1="76" x2="1920" y2="76" stroke="#000000" stroke-width="1.5" opacity="0.08"/><line x1="0" y1="80" x2="1920" y2="80" stroke="#000000" stroke-width="1.5" opacity="0.08"/><line x1="0" y1="84" x2="1920" y2="84" stroke="#000000" stroke-width="1.5" opacity="0.08"/><line x1="0" y1="88" x2="1920" y2="88" stroke="#000000" stroke-width="1.5" opacity="0.08"/><line x1="0" y1="92" x2="1920" y2="92" stroke="#000000" stroke-width="1.5" opacity="0.08"/><line x1="0" y1="96" x2="1920" y2="96" stroke="#000000" stroke-width="1.5" opacity="0.08"/><line x1="0" y1="100" x2="1920" y2="100" stroke="#000000" stroke-width="1.5" opacity="0.08"/><line x1="0" y1="104" x2="1920" y2="104" stroke="#000000" stroke-width="1.5" opacity="0.08"/><line x1="0" y1="108" x2="1920" y2="108" stroke="#000000" stroke-width="1.5" opacity="0.08"/><line x1="0" y1="112" x2="1920" y2="112" stroke="#000000" stroke-width="1.5" opacity="0.08"/><line x1="0" y1="116" x2="1920" y2="116" stroke="#000000" stroke-width="1.5" opacity="0.08"/><line x1="0" y1="120" x2="1920" y2="120" stroke="#000000" stroke-width="1.5" opacity="0.08"/><line x1="0" y1="124" x2="1920" y2="124" stroke="#000000" stroke-width="1.5" opacity="0.08"/><line x1="0" y1="128" x2="1920" y2="128" stroke="#000000" stroke-width="1.5" opacity="0.08"/><line x1="0" y1="132" x2="1920" y2="132" stroke="#000000" stroke-width="1.5" opacity="0.08"/><line x1="0" y1="136" x2="1920" y2="136" stroke="#000000" stroke-width="1.5" opacity="0.08"/><line x1="0" y1="140" x2="1920" y2="140" stroke="#000000" stroke-width="1.5" opacity="0.08"/><line x1="0" y1="144" x2="1920" y2="144" stroke="#000000" stroke-width="1.5" opacity="0.08"/><line x1="0" y1="148" x2="1920" y2="148" stroke="#000000" stroke-width="1.5" opacity="0.08"/><line x1="0" y1="152" x2="1920" y2="152" stroke="#000000" stroke-width="1.5" opacity="0.08"/><line x1="0" y1="156" x2="1920" y2="156" stroke="#000000" stroke-width="1.5" opacity="0.08"/><line x1="0" y1="160" x2="1920" y2="160" stroke="#000000" stroke-width="1.5" opacity="0.08"/><line x1="0" y1="164" x2="1920" y2="164" stroke="#000000" stroke-width="1.5" opacity="0.08"/><line x1="0" y1="168" x2="1920" y2="168" stroke="#000000" stroke-width="1.5" opacity="0.08"/><line x1="0" y1="172" x2="1920" y2="172" stroke="#000000" stroke-width="1.5" opacity="0.08"/><line x1="0" y1="176" x2="1920" y2="176" stroke="#000000" stroke-width="1.5" opacity="0.08"/><line x1="0" y1="180" x2="1920" y2="180" stroke="#000000" stroke-width="1.5" opacity="0.08"/><line x1="0" y1="184" x2="1920" y2="184" stroke="#000000" stroke-width="1.5" opacity="0.08"/><line x1="0" y1="188" x2="1920" y2="188" stroke="#000000" stroke-width="1.5" opacity="0.08"/><line x1="0" y1="192" x2="1920" y2="192" stroke="#000000" stroke-width="1.5" opacity="0.08"/><line x1="0" y1="196" x2="1920" y2="196" stroke="#000000" stroke-width="1.5" opacity="0.08"/><line x1="0" y1="200" x2="1920" y2="200" stroke="#000000" stroke-width="1.5" opacity="0.08"/><line x1="0" y1="204" x2="1920" y2="204" stroke="#000000" stroke-width="1.5" opacity="0.08"/><line x1="0" y1="208" x2="1920" y2="208" stroke="#000000" stroke-width="1.5" opacity="0.08"/><line x1="0" y1="212" x2="1920" y2="212" stroke="#000000" stroke-width="1.5" opacity="0.08"/><line x1="0" y1="216" x2="1920" y2="216" stroke="#000000" stroke-width="1.5" opacity="0.08"/><line x1="0" y1="220" x2="1920" y2="220" stroke="#000000" stroke-width="1.5" opacity="0.08"/><line x1="0" y1="224" x2="1920" y2="224" stroke="#000000" stroke-width="1.5" opacity="0.08"/><line x1="0" y1="228" x2="1920" y2="228" stroke="#000000" stroke-width="1.5" opacity="0.08"/><line x1="0" y1="232" x2="1920" y2="232" stroke="#000000" stroke-width="1.5" opacity="0.08"/><line x1="0" y1="236" x2="1920" y2="236" stroke="#000000" stroke-width="1.5" opacity="0.08"/><line x1="0" y1="240" x2="1920" y2="240" stroke="#000000" stroke-width="1.5" opacity="0.08"/><line x1="0" y1="244" x2="1920" y2="244" stroke="#000000" stroke-width="1.5" opacity="0.08"/><line x1="0" y1="248" x2="1920" y2="248" stroke="#000000" stroke-width="1.5" opacity="0.08"/><line x1="0" y1="252" x2="1920" y2="252" stroke="#000000" stroke-width="1.5" opacity="0.08"/><line x1="0" y1="256" x2="1920" y2="256" stroke="#000000" stroke-width="1.5" opacity="0.08"/><line x1="0" y1="260" x2="1920" y2="260" stroke="#000000" stroke-width="1.5" opacity="0.08"/><line x1="0" y1="264" x2="1920" y2="264" stroke="#000000" stroke-width="1.5" opacity="0.08"/><line x1="0" y1="268" x2="1920" y2="268" stroke="#000000" stroke-width="1.5" opacity="0.08"/><line x1="0" y1="272" x2="1920" y2="272" stroke="#000000" stroke-width="1.5" opacity="0.08"/><line x1="0" y1="276" x2="1920" y2="276" stroke="#000000" stroke-width="1.5" opacity="0.08"/><line x1="0" y1="280" x2="1920" y2="280" stroke="#000000" stroke-width="1.5" opacity="0.08"/><line x1="0" y1="284" x2="1920" y2="284" stroke="#000000" stroke-width="1.5" opacity="0.08"/><line x1="0" y1="288" x2="1920" y2="288" stroke="#000000" stroke-width="1.5" opacity="0.08"/><line x1="0" y1="292" x2="1920" y2="292" stroke="#000000" stroke-width="1.5" opacity="0.08"/><line x1="0" y1="296" x2="1920" y2="296" stroke="#000000" stroke-width="1.5" opacity="0.08"/><line x1="0" y1="300" x2="1920" y2="300" stroke="#000000" stroke-width="1.5" opacity="0.08"/><line x1="0" y1="304" x2="1920" y2="304" stroke="#000000" stroke-width="1.5" opacity="0.08"/><line x1="0" y1="308" x2="1920" y2="308" stroke="#000000" stroke-width="1.5" opacity="0.08"/><line x1="0" y1="312" x2="1920" y2="312" stroke="#000000" stroke-width="1.5" opacity="0.08"/><line x1="0" y1="316" x2="1920" y2="316" stroke="#000000" stroke-width="1.5" opacity="0.08"/><line x1="0" y1="320" x2="1920" y2="320" stroke="#000000" stroke-width="1.5" opacity="0.08"/><line x1="0" y1="324" x2="1920" y2="324" stroke="#000000" stroke-width="1.5" opacity="0.08"/><line x1="0" y1="328" x2="1920" y2="328" stroke="#000000" stroke-width="1.5" opacity="0.08"/><line x1="0" y1="332" x2="1920" y2="332" stroke="#000000" stroke-width="1.5" opacity="0.08"/><line x1="0" y1="336" x2="1920" y2="336" stroke="#000000" stroke-width="1.5" opacity="0.08"/><line x1="0" y1="340" x2="1920" y2="340" stroke="#000000" stroke-width="1.5" opacity="0.08"/><line x1="0" y1="344" x2="1920" y2="344" stroke="#000000" stroke-width="1.5" opacity="0.08"/><line x1="0" y1="348" x2="1920" y2="348" stroke="#000000" stroke-width="1.5" opacity="0.08"/><line x1="0" y1="352" x2="1920" y2="352" stroke="#000000" stroke-width="1.5" opacity="0.08"/><line x1="0" y1="356" x2="1920" y2="356" stroke="#000000" stroke-width="1.5" opacity="0.08"/><line x1="0" y1="360" x2="1920" y2="360" stroke="#000000" stroke-width="1.5" opacity="0.08"/><line x1="0" y1="364" x2="1920" y2="364" stroke="#000000" stroke-width="1.5" opacity="0.08"/><line x1="0" y1="368" x2="1920" y2="368" stroke="#000000" stroke-width="1.5" opacity="0.08"/><line x1="0" y1="372" x2="1920" y2="372" stroke="#000000" stroke-width="1.5" opacity="0.08"/><line x1="0" y1="376" x2="1920" y2="376" stroke="#000000" stroke-width="1.5" opacity="0.08"/><line x1="0" y1="380" x2="1920" y2="380" stroke="#000000" stroke-width="1.5" opacity="0.08"/><line x1="0" y1="384" x2="1920" y2="384" stroke="#000000" stroke-width="1.5" opacity="0.08"/><line x1="0" y1="388" x2="1920" y2="388" stroke="#000000" stroke-width="1.5" opacity="0.08"/><line x1="0" y1="392" x2="1920" y2="392" stroke="#000000" stroke-width="1.5" opacity="0.08"/><line x1="0" y1="396" x2="1920" y2="396" stroke="#000000" stroke-width="1.5" opacity="0.08"/><line x1="0" y1="400" x2="1920" y2="400" stroke="#000000" stroke-width="1.5" opacity="0.08"/><line x1="0" y1="404" x2="1920" y2="404" stroke="#000000" stroke-width="1.5" opacity="0.08"/><line x1="0" y1="408" x2="1920" y2="408" stroke="#000000" stroke-width="1.5" opacity="0.08"/><line x1="0" y1="412" x2="1920" y2="412" stroke="#000000" stroke-width="1.5" opacity="0.08"/><line x1="0" y1="416" x2="1920" y2="416" stroke="#000000" stroke-width="1.5" opacity="0.08"/><line x1="0" y1="420" x2="1920" y2="420" stroke="#000000" stroke-width="1.5" opacity="0.08"/><line x1="0" y1="424" x2="1920" y2="424" stroke="#000000" stroke-width="1.5" opacity="0.08"/><line x1="0" y1="428" x2="1920" y2="428" stroke="#000000" stroke-width="1.5" opacity="0.08"/><line x1="0" y1="432" x2="1920" y2="432" stroke="#000000" stroke-width="1.5" opacity="0.08"/><line x1="0" y1="436" x2="1920" y2="436" stroke="#000000" stroke-width="1.5" opacity="0.08"/><line x1="0" y1="440" x2="1920" y2="440" stroke="#000000" stroke-width="1.5" opacity="0.08"/><line x1="0" y1="444" x2="1920" y2="444" stroke="#000000" stroke-width="1.5" opacity="0.08"/><line x1="0" y1="448" x2="1920" y2="448" stroke="#000000" stroke-width="1.5" opacity="0.08"/><line x1="0" y1="452" x2="1920" y2="452" stroke="#000000" stroke-width="1.5" opacity="0.08"/><line x1="0" y1="456" x2="1920" y2="456" stroke="#000000" stroke-width="1.5" opacity="0.08"/><line x1="0" y1="460" x2="1920" y2="460" stroke="#000000" stroke-width="1.5" opacity="0.08"/><line x1="0" y1="464" x2="1920" y2="464" stroke="#000000" stroke-width="1.5" opacity="0.08"/><line x1="0" y1="468" x2="1920" y2="468" stroke="#000000" stroke-width="1.5" opacity="0.08"/><line x1="0" y1="472" x2="1920" y2="472" stroke="#000000" stroke-width="1.5" opacity="0.08"/><line x1="0" y1="476" x2="1920" y2="476" stroke="#000000" stroke-width="1.5" opacity="0.08"/><line x1="0" y1="480" x2="1920" y2="480" stroke="#000000" stroke-width="1.5" opacity="0.08"/><line x1="0" y1="484" x2="1920" y2="484" stroke="#000000" stroke-width="1.5" opacity="0.08"/><line x1="0" y1="488" x2="1920" y2="488" stroke="#000000" stroke-width="1.5" opacity="0.08"/><line x1="0" y1="492" x2="1920" y2="492" stroke="#000000" stroke-width="1.5" opacity="0.08"/><line x1="0" y1="496" x2="1920" y2="496" stroke="#000000" stroke-width="1.5" opacity="0.08"/><line x1="0" y1="500" x2="1920" y2="500" stroke="#000000" stroke-width="1.5" opacity="0.08"/><line x1="0" y1="504" x2="1920" y2="504" stroke="#000000" stroke-width="1.5" opacity="0.08"/><line x1="0" y1="508" x2="1920" y2="508" stroke="#000000" stroke-width="1.5" opacity="0.08"/><line x1="0" y1="512" x2="1920" y2="512" stroke="#000000" stroke-width="1.5" opacity="0.08"/><line x1="0" y1="516" x2="1920" y2="516" stroke="#000000" stroke-width="1.5" opacity="0.08"/><line x1="0" y1="520" x2="1920" y2="520" stroke="#000000" stroke-width="1.5" opacity="0.08"/><line x1="0" y1="524" x2="1920" y2="524" stroke="#000000" stroke-width="1.5" opacity="0.08"/><line x1="0" y1="528" x2="1920" y2="528" stroke="#000000" stroke-width="1.5" opacity="0.08"/><line x1="0" y1="532" x2="1920" y2="532" stroke="#000000" stroke-width="1.5" opacity="0.08"/><line x1="0" y1="536" x2="1920" y2="536" stroke="#000000" stroke-width="1.5" opacity="0.08"/><line x1="0" y1="540" x2="1920" y2="540" stroke="#000000" stroke-width="1.5" opacity="0.08"/><line x1="0" y1="544" x2="1920" y2="544" stroke="#000000" stroke-width="1.5" opacity="0.08"/><line x1="0" y1="548" x2="1920" y2="548" stroke="#000000" stroke-width="1.5" opacity="0.08"/><line x1="0" y1="552" x2="1920" y2="552" stroke="#000000" stroke-width="1.5" opacity="0.08"/><line x1="0" y1="556" x2="1920" y2="556" stroke="#000000" stroke-width="1.5" opacity="0.08"/><line x1="0" y1="560" x2="1920" y2="560" stroke="#000000" stroke-width="1.5" opacity="0.08"/><line x1="0" y1="564" x2="1920" y2="564" stroke="#000000" stroke-width="1.5" opacity="0.08"/><line x1="0" y1="568" x2="1920" y2="568" stroke="#000000" stroke-width="1.5" opacity="0.08"/><line x1="0" y1="572" x2="1920" y2="572" stroke="#000000" stroke-width="1.5" opacity="0.08"/><line x1="0" y1="576" x2="1920" y2="576" stroke="#000000" stroke-width="1.5" opacity="0.08"/><line x1="0" y1="580" x2="1920" y2="580" stroke="#000000" stroke-width="1.5" opacity="0.08"/><line x1="0" y1="584" x2="1920" y2="584" stroke="#000000" stroke-width="1.5" opacity="0.08"/><line x1="0" y1="588" x2="1920" y2="588" stroke="#000000" stroke-width="1.5" opacity="0.08"/><line x1="0" y1="592" x2="1920" y2="592" stroke="#000000" stroke-width="1.5" opacity="0.08"/><line x1="0" y1="596" x2="1920" y2="596" stroke="#000000" stroke-width="1.5" opacity="0.08"/><line x1="0" y1="600" x2="1920" y2="600" stroke="#000000" stroke-width="1.5" opacity="0.08"/><line x1="0" y1="604" x2="1920" y2="604" stroke="#000000" stroke-width="1.5" opacity="0.08"/><line x1="0" y1="608" x2="1920" y2="608" stroke="#000000" stroke-width="1.5" opacity="0.08"/><line x1="0" y1="612" x2="1920" y2="612" stroke="#000000" stroke-width="1.5" opacity="0.08"/><line x1="0" y1="616" x2="1920" y2="616" stroke="#000000" stroke-width="1.5" opacity="0.08"/><line x1="0" y1="620" x2="1920" y2="620" stroke="#000000" stroke-width="1.5" opacity="0.08"/><line x1="0" y1="624" x2="1920" y2="624" stroke="#000000" stroke-width="1.5" opacity="0.08"/><line x1="0" y1="628" x2="1920" y2="628" stroke="#000000" stroke-width="1.5" opacity="0.08"/><line x1="0" y1="632" x2="1920" y2="632" stroke="#000000" stroke-width="1.5" opacity="0.08"/><line x1="0" y1="636" x2="1920" y2="636" stroke="#000000" stroke-width="1.5" opacity="0.08"/><line x1="0" y1="640" x2="1920" y2="640" stroke="#000000" stroke-width="1.5" opacity="0.08"/><line x1="0" y1="644" x2="1920" y2="644" stroke="#000000" stroke-width="1.5" opacity="0.08"/><line x1="0" y1="648" x2="1920" y2="648" stroke="#000000" stroke-width="1.5" opacity="0.08"/><line x1="0" y1="652" x2="1920" y2="652" stroke="#000000" stroke-width="1.5" opacity="0.08"/><line x1="0" y1="656" x2="1920" y2="656" stroke="#000000" stroke-width="1.5" opacity="0.08"/><line x1="0" y1="660" x2="1920" y2="660" stroke="#000000" stroke-width="1.5" opacity="0.08"/><line x1="0" y1="664" x2="1920" y2="664" stroke="#000000" stroke-width="1.5" opacity="0.08"/><line x1="0" y1="668" x2="1920" y2="668" stroke="#000000" stroke-width="1.5" opacity="0.08"/><line x1="0" y1="672" x2="1920" y2="672" stroke="#000000" stroke-width="1.5" opacity="0.08"/><line x1="0" y1="676" x2="1920" y2="676" stroke="#000000" stroke-width="1.5" opacity="0.08"/><line x1="0" y1="680" x2="1920" y2="680" stroke="#000000" stroke-width="1.5" opacity="0.08"/><line x1="0" y1="684" x2="1920" y2="684" stroke="#000000" stroke-width="1.5" opacity="0.08"/><line x1="0" y1="688" x2="1920" y2="688" stroke="#000000" stroke-width="1.5" opacity="0.08"/><line x1="0" y1="692" x2="1920" y2="692" stroke="#000000" stroke-width="1.5" opacity="0.08"/><line x1="0" y1="696" x2="1920" y2="696" stroke="#000000" stroke-width="1.5" opacity="0.08"/><line x1="0" y1="700" x2="1920" y2="700" stroke="#000000" stroke-width="1.5" opacity="0.08"/><line x1="0" y1="704" x2="1920" y2="704" stroke="#000000" stroke-width="1.5" opacity="0.08"/><line x1="0" y1="708" x2="1920" y2="708" stroke="#000000" stroke-width="1.5" opacity="0.08"/><line x1="0" y1="712" x2="1920" y2="712" stroke="#000000" stroke-width="1.5" opacity="0.08"/><line x1="0" y1="716" x2="1920" y2="716" stroke="#000000" stroke-width="1.5" opacity="0.08"/><line x1="0" y1="720" x2="1920" y2="720" stroke="#000000" stroke-width="1.5" opacity="0.08"/><line x1="0" y1="724" x2="1920" y2="724" stroke="#000000" stroke-width="1.5" opacity="0.08"/><line x1="0" y1="728" x2="1920" y2="728" stroke="#000000" stroke-width="1.5" opacity="0.08"/><line x1="0" y1="732" x2="1920" y2="732" stroke="#000000" stroke-width="1.5" opacity="0.08"/><line x1="0" y1="736" x2="1920" y2="736" stroke="#000000" stroke-width="1.5" opacity="0.08"/><line x1="0" y1="740" x2="1920" y2="740" stroke="#000000" stroke-width="1.5" opacity="0.08"/><line x1="0" y1="744" x2="1920" y2="744" stroke="#000000" stroke-width="1.5" opacity="0.08"/><line x1="0" y1="748" x2="1920" y2="748" stroke="#000000" stroke-width="1.5" opacity="0.08"/><line x1="0" y1="752" x2="1920" y2="752" stroke="#000000" stroke-width="1.5" opacity="0.08"/><line x1="0" y1="756" x2="1920" y2="756" stroke="#000000" stroke-width="1.5" opacity="0.08"/><line x1="0" y1="760" x2="1920" y2="760" stroke="#000000" stroke-width="1.5" opacity="0.08"/><line x1="0" y1="764" x2="1920" y2="764" stroke="#000000" stroke-width="1.5" opacity="0.08"/><line x1="0" y1="768" x2="1920" y2="768" stroke="#000000" stroke-width="1.5" opacity="0.08"/><line x1="0" y1="772" x2="1920" y2="772" stroke="#000000" stroke-width="1.5" opacity="0.08"/><line x1="0" y1="776" x2="1920" y2="776" stroke="#000000" stroke-width="1.5" opacity="0.08"/><line x1="0" y1="780" x2="1920" y2="780" stroke="#000000" stroke-width="1.5" opacity="0.08"/><line x1="0" y1="784" x2="1920" y2="784" stroke="#000000" stroke-width="1.5" opacity="0.08"/><line x1="0" y1="788" x2="1920" y2="788" stroke="#000000" stroke-width="1.5" opacity="0.08"/><line x1="0" y1="792" x2="1920" y2="792" stroke="#000000" stroke-width="1.5" opacity="0.08"/><line x1="0" y1="796" x2="1920" y2="796" stroke="#000000" stroke-width="1.5" opacity="0.08"/><line x1="0" y1="800" x2="1920" y2="800" stroke="#000000" stroke-width="1.5" opacity="0.08"/><line x1="0" y1="804" x2="1920" y2="804" stroke="#000000" stroke-width="1.5" opacity="0.08"/><line x1="0" y1="808" x2="1920" y2="808" stroke="#000000" stroke-width="1.5" opacity="0.08"/><line x1="0" y1="812" x2="1920" y2="812" stroke="#000000" stroke-width="1.5" opacity="0.08"/><line x1="0" y1="816" x2="1920" y2="816" stroke="#000000" stroke-width="1.5" opacity="0.08"/><line x1="0" y1="820" x2="1920" y2="820" stroke="#000000" stroke-width="1.5" opacity="0.08"/><line x1="0" y1="824" x2="1920" y2="824" stroke="#000000" stroke-width="1.5" opacity="0.08"/><line x1="0" y1="828" x2="1920" y2="828" stroke="#000000" stroke-width="1.5" opacity="0.08"/><line x1="0" y1="832" x2="1920" y2="832" stroke="#000000" stroke-width="1.5" opacity="0.08"/><line x1="0" y1="836" x2="1920" y2="836" stroke="#000000" stroke-width="1.5" opacity="0.08"/><line x1="0" y1="840" x2="1920" y2="840" stroke="#000000" stroke-width="1.5" opacity="0.08"/><line x1="0" y1="844" x2="1920" y2="844" stroke="#000000" stroke-width="1.5" opacity="0.08"/><line x1="0" y1="848" x2="1920" y2="848" stroke="#000000" stroke-width="1.5" opacity="0.08"/><line x1="0" y1="852" x2="1920" y2="852" stroke="#000000" stroke-width="1.5" opacity="0.08"/><line x1="0" y1="856" x2="1920" y2="856" stroke="#000000" stroke-width="1.5" opacity="0.08"/><line x1="0" y1="860" x2="1920" y2="860" stroke="#000000" stroke-width="1.5" opacity="0.08"/><line x1="0" y1="864" x2="1920" y2="864" stroke="#000000" stroke-width="1.5" opacity="0.08"/><line x1="0" y1="868" x2="1920" y2="868" stroke="#000000" stroke-width="1.5" opacity="0.08"/><line x1="0" y1="872" x2="1920" y2="872" stroke="#000000" stroke-width="1.5" opacity="0.08"/><line x1="0" y1="876" x2="1920" y2="876" stroke="#000000" stroke-width="1.5" opacity="0.08"/><line x1="0" y1="880" x2="1920" y2="880" stroke="#000000" stroke-width="1.5" opacity="0.08"/><line x1="0" y1="884" x2="1920" y2="884" stroke="#000000" stroke-width="1.5" opacity="0.08"/><line x1="0" y1="888" x2="1920" y2="888" stroke="#000000" stroke-width="1.5" opacity="0.08"/><line x1="0" y1="892" x2="1920" y2="892" stroke="#000000" stroke-width="1.5" opacity="0.08"/><line x1="0" y1="896" x2="1920" y2="896" stroke="#000000" stroke-width="1.5" opacity="0.08"/><line x1="0" y1="900" x2="1920" y2="900" stroke="#000000" stroke-width="1.5" opacity="0.08"/><line x1="0" y1="904" x2="1920" y2="904" stroke="#000000" stroke-width="1.5" opacity="0.08"/><line x1="0" y1="908" x2="1920" y2="908" stroke="#000000" stroke-width="1.5" opacity="0.08"/><line x1="0" y1="912" x2="1920" y2="912" stroke="#000000" stroke-width="1.5" opacity="0.08"/><line x1="0" y1="916" x2="1920" y2="916" stroke="#000000" stroke-width="1.5" opacity="0.08"/><line x1="0" y1="920" x2="1920" y2="920" stroke="#000000" stroke-width="1.5" opacity="0.08"/><line x1="0" y1="924" x2="1920" y2="924" stroke="#000000" stroke-width="1.5" opacity="0.08"/><line x1="0" y1="928" x2="1920" y2="928" stroke="#000000" stroke-width="1.5" opacity="0.08"/><line x1="0" y1="932" x2="1920" y2="932" stroke="#000000" stroke-width="1.5" opacity="0.08"/><line x1="0" y1="936" x2="1920" y2="936" stroke="#000000" stroke-width="1.5" opacity="0.08"/><line x1="0" y1="940" x2="1920" y2="940" stroke="#000000" stroke-width="1.5" opacity="0.08"/><line x1="0" y1="944" x2="1920" y2="944" stroke="#000000" stroke-width="1.5" opacity="0.08"/><line x1="0" y1="948" x2="1920" y2="948" stroke="#000000" stroke-width="1.5" opacity="0.08"/><line x1="0" y1="952" x2="1920" y2="952" stroke="#000000" stroke-width="1.5" opacity="0.08"/><line x1="0" y1="956" x2="1920" y2="956" stroke="#000000" stroke-width="1.5" opacity="0.08"/><line x1="0" y1="960" x2="1920" y2="960" stroke="#000000" stroke-width="1.5" opacity="0.08"/><line x1="0" y1="964" x2="1920" y2="964" stroke="#000000" stroke-width="1.5" opacity="0.08"/><line x1="0" y1="968" x2="1920" y2="968" stroke="#000000" stroke-width="1.5" opacity="0.08"/><line x1="0" y1="972" x2="1920" y2="972" stroke="#000000" stroke-width="1.5" opacity="0.08"/><line x1="0" y1="976" x2="1920" y2="976" stroke="#000000" stroke-width="1.5" opacity="0.08"/><line x1="0" y1="980" x2="1920" y2="980" stroke="#000000" stroke-width="1.5" opacity="0.08"/><line x1="0" y1="984" x2="1920" y2="984" stroke="#000000" stroke-width="1.5" opacity="0.08"/><line x1="0" y1="988" x2="1920" y2="988" stroke="#000000" stroke-width="1.5" opacity="0.08"/><line x1="0" y1="992" x2="1920" y2="992" stroke="#000000" stroke-width="1.5" opacity="0.08"/><line x1="0" y1="996" x2="1920" y2="996" stroke="#000000" stroke-width="1.5" opacity="0.08"/><line x1="0" y1="1000" x2="1920" y2="1000" stroke="#000000" stroke-width="1.5" opacity="0.08"/><line x1="0" y1="1004" x2="1920" y2="1004" stroke="#000000" stroke-width="1.5" opacity="0.08"/><line x1="0" y1="1008" x2="1920" y2="1008" stroke="#000000" stroke-width="1.5" opacity="0.08"/><line x1="0" y1="1012" x2="1920" y2="1012" stroke="#000000" stroke-width="1.5" opacity="0.08"/><line x1="0" y1="1016" x2="1920" y2="1016" stroke="#000000" stroke-width="1.5" opacity="0.08"/><line x1="0" y1="1020" x2="1920" y2="1020" stroke="#000000" stroke-width="1.5" opacity="0.08"/><line x1="0" y1="1024" x2="1920" y2="1024" stroke="#000000" stroke-width="1.5" opacity="0.08"/><line x1="0" y1="1028" x2="1920" y2="1028" stroke="#000000" stroke-width="1.5" opacity="0.08"/><line x1="0" y1="1032" x2="1920" y2="1032" stroke="#000000" stroke-width="1.5" opacity="0.08"/><line x1="0" y1="1036" x2="1920" y2="1036" stroke="#000000" stroke-width="1.5" opacity="0.08"/><line x1="0" y1="1040" x2="1920" y2="1040" stroke="#000000" stroke-width="1.5" opacity="0.08"/><line x1="0" y1="1044" x2="1920" y2="1044" stroke="#000000" stroke-width="1.5" opacity="0.08"/><line x1="0" y1="1048" x2="1920" y2="1048" stroke="#000000" stroke-width="1.5" opacity="0.08"/><line x1="0" y1="1052" x2="1920" y2="1052" stroke="#000000" stroke-width="1.5" opacity="0.08"/><line x1="0" y1="1056" x2="1920" y2="1056" stroke="#000000" stroke-width="1.5" opacity="0.08"/><line x1="0" y1="1060" x2="1920" y2="1060" stroke="#000000" stroke-width="1.5" opacity="0.08"/><line x1="0" y1="1064" x2="1920" y2="1064" stroke="#000000" stroke-width="1.5" opacity="0.08"/><line x1="0" y1="1068" x2="1920" y2="1068" stroke="#000000" stroke-width="1.5" opacity="0.08"/><line x1="0" y1="1072" x2="1920" y2="1072" stroke="#000000" stroke-width="1.5" opacity="0.08"/><line x1="0" y1="1076" x2="1920" y2="1076" stroke="#000000" stroke-width="1.5" opacity="0.08"/>
</svg>